<?xml version="1.0" encoding="UTF-8"?>
<svg version="1.1" xmlns="http://www.w3.org/2000/svg" width="1024" height="1024">
<path d="M0 0 C337.92 0 675.84 0 1024 0 C1024 337.92 1024 675.84 1024 1024 C686.08 1024 348.16 1024 0 1024 C0 686.08 0 348.16 0 0 Z " fill="#393F44" transform="translate(0,0)"/>
<path d="M0 0 C0.71542969 0.22703613 1.43085937 0.45407227 2.16796875 0.68798828 C19.88254718 6.39521244 36.81512582 13.45877787 50 27 C51.17755814 27.86782128 52.36643307 28.72037124 53.5625 29.5625 C58.15690978 32.90069449 62.02022788 36.88532905 65.96313477 40.94946289 C68.69829103 43.84147298 68.69829103 43.84147298 72 46 C73.00587707 47.6631263 74.00492907 49.33038579 75 51 C76.31291771 52.55908979 77.64832147 54.09939224 79 55.625 C85.44613986 63.38775339 90.1765711 72.17070726 95 81 C95.53882813 81.98613281 96.07765625 82.97226562 96.6328125 83.98828125 C101.43655306 93.2181098 104.96109874 102.80549369 107 113 C107.33 113.33 107.66 113.66 108 114 C108.18599976 115.34923638 108.32342907 116.70528869 108.4375 118.0625 C108.73920485 121.10349329 109.17772392 123.9330789 110 126.875 C119.15696508 161.08370126 108.25424799 201.52598044 91.43041992 231.59912109 C82.28049453 247.43311101 70.25082486 262.4839285 56 274 C55.1028125 274.74636719 54.205625 275.49273438 53.28125 276.26171875 C39.83750943 287.07442423 25.14444063 295.03191294 9 301 C7.82953125 301.5053125 6.6590625 302.010625 5.453125 302.53125 C-27.48030255 316.53913321 -70.92981749 314.79614873 -103.9375 301.84765625 C-106.66871878 300.64055509 -109.330631 299.33832124 -112 298 C-113.26754634 297.39440207 -114.53583081 296.79034764 -115.8046875 296.1875 C-128.05434735 290.30164149 -140.04696934 283.3805112 -150 274 C-150 273.34 -150 272.68 -150 272 C-151.09054687 271.64228516 -151.09054687 271.64228516 -152.203125 271.27734375 C-161.22146961 267.1586305 -168.02682265 256.64985871 -174 249 C-174.77601563 248.01773438 -175.55203125 247.03546875 -176.3515625 246.0234375 C-181.28190074 239.64202981 -185.3710544 233.19403879 -189 226 C-189.42925781 225.19046875 -189.85851562 224.3809375 -190.30078125 223.546875 C-206.83456175 191.81020655 -212.51999171 151.84782803 -204 117 C-203.81775879 116.24299805 -203.63551758 115.48599609 -203.44775391 114.70605469 C-197.99744089 92.60428412 -188.16879251 71.86998555 -174 54 C-173.54399414 53.42443359 -173.08798828 52.84886719 -172.61816406 52.25585938 C-148.28417207 21.9594548 -114.96903245 2.52429796 -77 -5 C-75.90429688 -5.22945312 -74.80859375 -5.45890625 -73.6796875 -5.6953125 C-49.35821589 -10.02319341 -23.39035981 -7.49836977 0 0 Z " fill="#F8642F" transform="translate(558,534)"/>
<path d="M0 0 C0.91245483 -0.00525696 1.82490967 -0.01051392 2.76501465 -0.01593018 C5.7862247 -0.02915217 8.80690943 -0.02038425 11.828125 -0.01025391 C13.92415468 -0.01227401 16.02018367 -0.01518491 18.11621094 -0.01895142 C22.51113571 -0.02337775 26.9058777 -0.01693367 31.30078125 -0.00292969 C36.94031321 0.01416227 42.57941687 0.00432276 48.21893311 -0.01364708 C52.54772176 -0.02447649 56.87640851 -0.02104243 61.2052002 -0.0132637 C63.28487193 -0.01125937 65.36455286 -0.01372912 67.44421387 -0.02070236 C70.34847598 -0.02830291 73.25204001 -0.01673213 76.15625 0 C77.01972046 -0.00607269 77.88319092 -0.01214539 78.77282715 -0.0184021 C84.611071 0.0440581 84.611071 0.0440581 86.79894576 1.65608475 C88.36533753 3.7770896 88.45343723 4.864477 88.45417249 7.48271608 C88.46168305 8.32150468 88.4691936 9.16029328 88.47693175 10.02449971 C88.46990825 10.94788583 88.46288475 11.87127195 88.45564842 12.82263947 C88.46000874 13.80614732 88.46436907 14.78965517 88.46886152 15.8029663 C88.47989459 19.13070309 88.46935827 22.45803216 88.45907593 25.7857666 C88.4625293 28.18272887 88.4672917 30.57968956 88.47325766 32.9766469 C88.4832076 38.20463917 88.48374922 43.43254706 88.47611618 48.66053963 C88.46479653 56.43457089 88.47055541 64.20852343 88.4797411 71.98255412 C88.49556266 85.86470334 88.49415949 99.74681123 88.48550436 113.62896441 C88.47796716 125.77722929 88.47598317 137.92547899 88.4795723 150.07374573 C88.47980145 150.87857161 88.48003061 151.6833975 88.48026671 152.51261205 C88.48120067 155.77940078 88.48215587 159.0461895 88.483146 162.31297821 C88.49232958 192.97791435 88.48399219 223.64282412 88.46785531 254.30775619 C88.45361776 281.57074482 88.45489161 308.83369142 88.46923828 336.09667969 C88.48529109 366.70438708 88.49167837 397.31207115 88.48240149 427.91978216 C88.48143929 431.18072859 88.48050077 434.44167502 88.4795723 437.70262146 C88.47933506 438.50559012 88.47909783 439.30855878 88.47885341 440.13585982 C88.4754364 452.27853227 88.47944035 464.42118791 88.48701096 476.56385803 C88.49557326 490.36621258 88.49347739 504.1685192 88.47716872 517.97086775 C88.46833575 525.70209943 88.46781939 533.43322741 88.47910725 541.16445648 C88.48659233 546.92483166 88.4785209 552.68509861 88.46418352 558.44545692 C88.46081252 560.78524197 88.46258123 563.1250408 88.46981089 565.46481711 C88.47884038 568.62799028 88.46967202 571.79058554 88.45564842 574.95372772 C88.46618367 576.3388069 88.46618367 576.3388069 88.47693175 577.75186747 C88.46566592 579.01005037 88.46566592 579.01005037 88.45417249 580.2936511 C88.45396921 581.01750988 88.45376594 581.74136867 88.4535565 582.48716256 C87.95855944 584.99361131 87.11257466 585.87511133 85.078125 587.38818359 C82.25824308 587.66877022 79.66188064 587.7670817 76.84301758 587.72875977 C76.00377243 587.72919785 75.16452728 587.72963593 74.29985046 587.73008728 C71.52388299 587.72799606 68.74851831 587.70464946 65.97265625 587.68115234 C64.04880605 587.67555757 62.12495158 587.67128691 60.20109558 587.66828918 C55.1358766 587.65683107 50.07091542 587.62735552 45.00579834 587.59417725 C39.83788541 587.56349722 34.66993086 587.54978827 29.50195312 587.53466797 C19.36056378 587.50248679 9.21936582 587.45127871 -0.921875 587.38818359 C-0.30345927 584.14482064 0.41397556 581.29330002 1.75 578.27099609 C2.24838379 577.1253418 2.24838379 577.1253418 2.75683594 575.95654297 C3.11036133 575.15023437 3.46388672 574.34392578 3.828125 573.51318359 C8.69849622 562.12146785 12.70090929 550.82333889 15.328125 538.70068359 C15.49151367 537.95302734 15.65490234 537.20537109 15.82324219 536.43505859 C20.84140269 511.82574272 20.19310359 482.6887805 14.078125 458.38818359 C13.86913574 457.54481445 13.66014648 456.70144531 13.44482422 455.83251953 C10.98059022 446.20816294 7.69130242 436.93746683 3.890625 427.76318359 C3.57714111 426.98958496 3.26365723 426.21598633 2.94067383 425.41894531 C1.15557791 421.29220615 -0.6066639 417.65896492 -3.55911446 414.24722958 C-15.42345429 399.61673614 -13.44064724 381.65213877 -13.24257398 363.86395562 C-13.20089089 359.0236389 -13.22345279 354.18354071 -13.23773193 349.34312439 C-13.2557332 339.88720289 -13.21572338 330.43239221 -13.15599273 320.97667737 C-13.08884109 309.96247365 -13.08181617 298.94847187 -13.07756962 287.93409412 C-13.06814868 268.29102692 -13.00754142 248.64845991 -12.91650391 229.00561523 C-12.8282216 209.9421119 -12.77168387 190.87888666 -12.75244141 171.81518555 C-12.75124766 170.63876053 -12.75005391 169.46233551 -12.74882399 168.25026125 C-12.7440835 163.52162053 -12.73937227 158.79297977 -12.73474585 154.06433893 C-12.71600048 135.88833731 -12.67339572 117.71238129 -12.62627675 99.53643375 C-12.61210258 94.04546388 -12.59898644 88.55449567 -12.58830404 83.06351781 C-12.56567563 71.52699604 -12.53496259 59.99061804 -12.4770243 48.45421285 C-12.45318403 43.68419718 -12.4339706 38.9142884 -12.4275322 34.14421463 C-12.4214284 29.78319395 -12.40151222 25.42246885 -12.37023176 21.06155806 C-12.36128372 19.47930149 -12.35741869 17.89700685 -12.35899113 16.31472576 C-12.36032875 14.17331196 -12.34344828 12.0328119 -12.32174492 9.89152622 C-12.31692128 8.69946868 -12.31209764 7.50741115 -12.30712783 6.27923065 C-11.921875 3.38818359 -11.921875 3.38818359 -10.64120686 1.50553411 C-7.48569846 -0.54515141 -3.64706935 -0.02564944 0 0 Z " fill="#EEEDE7" transform="translate(676.921875,184.61181640625)"/>
<path d="M0 0 C4.64511035 -0.18216119 7.75779316 0.19706209 12 2 C13.11375 2 14.2275 2 15.375 2 C22.83078255 4.0567676 25.85302567 12.67402285 29.50048828 19.03295898 C36.73651743 31.78605108 43.10130546 44.50652729 46 59 C46.33 59.33 46.66 59.66 47 60 C47.18599976 61.34923638 47.32342907 62.70528869 47.4375 64.0625 C47.73920485 67.10349329 48.17772392 69.9330789 49 72.875 C58.15696508 107.08370126 47.25424799 147.52598044 30.43041992 177.59912109 C21.28049453 193.43311101 9.25082486 208.4839285 -5 220 C-6.34578125 221.11955078 -6.34578125 221.11955078 -7.71875 222.26171875 C-21.16249057 233.07442423 -35.85555937 241.03191294 -52 247 C-53.17046875 247.5053125 -54.3409375 248.010625 -55.546875 248.53125 C-88.05516877 262.35830708 -129.08808505 260.13079362 -162 249 C-162.66 248.67 -163.32 248.34 -164 248 C-164 246.68 -164 245.36 -164 244 C-164.99 243.67 -165.98 243.34 -167 243 C-166.360625 241.88625 -165.72125 240.7725 -165.0625 239.625 C-163.40200139 236.34450275 -162.72356276 233.72548985 -162.5 230.0625 C-162.21585907 225.52317546 -160.9762129 222.34380059 -158.97265625 218.30078125 C-157.89802594 215.75878425 -157.44203408 213.40740337 -157 210.6875 C-156.26978486 206.44312447 -155.15652683 204.95924391 -152 202 C-151.3280947 199.98013655 -150.88549903 197.99331625 -150.4921875 195.90234375 C-150 194 -150 194 -148 191 C-147.896875 189.948125 -147.79375 188.89625 -147.6875 187.8125 C-146.9385019 183.65896507 -145.59169772 181.32096591 -143.25390625 177.89453125 C-140.49834624 173.73114619 -139.77042817 171.05058023 -140 166 C-139.39542969 165.76539063 -138.79085938 165.53078125 -138.16796875 165.2890625 C-134.09894664 162.86964395 -132.65461889 158.27961577 -131 154 C-130.39617174 151.26964615 -130.15578892 148.80420063 -130 146 C-128.88625 145.7834375 -128.88625 145.7834375 -127.75 145.5625 C-123.51519078 143.1563584 -122.43362491 139.52308658 -121 135 C-120.4665976 132.30187284 -120.20011002 129.75151271 -120 127 C-119.43023437 126.97808594 -118.86046875 126.95617187 -118.2734375 126.93359375 C-114.69331466 125.46340585 -113.43166596 122.30408995 -111.625 119.0625 C-110.83464391 117.69400551 -110.0442793 116.32551594 -109.25390625 114.95703125 C-108.87121582 114.28365723 -108.48852539 113.6102832 -108.09423828 112.91650391 C-106.62188917 110.33775769 -105.09576966 107.79289194 -103.5625 105.25 C-103.11003906 104.49203125 -102.65757812 103.7340625 -102.19140625 102.953125 C-101.16859309 101.27638212 -100.08947601 99.63421402 -99 98 C-98.896875 97.01 -98.79375 96.02 -98.6875 95 C-98 92 -98 92 -95.8125 90.625 C-94.884375 90.08875 -93.95625 89.5525 -93 89 C-89.04114008 84.66271965 -86.77375702 80.59415676 -85 75 C-84.01 74.67 -83.02 74.34 -82 74 C-81.67 73.34 -81.34 72.68 -81 72 C-80.34 72 -79.68 72 -79 72 C-78.7525 71.443125 -78.505 70.88625 -78.25 70.3125 C-77 68 -77 68 -74.9375 65.5 C-73.13355073 63.17232353 -72.42308458 61.8558209 -72 59 C-70.35 59 -68.7 59 -67 59 C-66.9071875 58.13375 -66.9071875 58.13375 -66.8125 57.25 C-66 55 -66 55 -63.625 53.1875 C-60.69508128 51.11369851 -60.69508128 51.11369851 -59.625 47.3125 C-59.08875 46.219375 -58.5525 45.12625 -58 44 C-54.625 43.375 -54.625 43.375 -51 43 C-48.20802268 40.70817728 -48.20802268 40.70817728 -46 38 C-44.3125 36.1875 -44.3125 36.1875 -43 35 C-42.34 35 -41.68 35 -41 35 C-41 33.68 -41 32.36 -41 31 C-40.32453125 30.81824219 -39.6490625 30.63648438 -38.953125 30.44921875 C-38.06109375 30.19785156 -37.1690625 29.94648437 -36.25 29.6875 C-34.92742187 29.32205078 -34.92742187 29.32205078 -33.578125 28.94921875 C-30.86874188 27.95167315 -29.09363384 26.98517984 -27 25 C-26.67 23.68 -26.34 22.36 -26 21 C-23.03 21 -20.06 21 -17 21 C-17 20.01 -17 19.02 -17 18 C-15.36368108 16.95107762 -13.69514137 15.95093297 -12 15 C-11.67 14.34 -11.34 13.68 -11 13 C-10.34 13 -9.68 13 -9 13 C-9 12.34 -9 11.68 -9 11 C-4.38 9.68 0.24 8.36 5 7 C5.33 5.02 5.66 3.04 6 1 C4.02 1 2.04 1 0 1 C0 0.67 0 0.34 0 0 Z " fill="#F8632E" transform="translate(619,588)"/>
<path d="M0 0 C0.88158783 -0.00525696 1.76317566 -0.01051392 2.67147827 -0.01593018 C5.59049106 -0.02915165 8.50896002 -0.02038373 11.42797852 -0.01025391 C13.45435186 -0.0122742 15.48072449 -0.01518527 17.50709534 -0.01895142 C21.75659092 -0.02337783 26.00589746 -0.01693412 30.25537109 -0.00292969 C35.70423931 0.0141514 41.15266389 0.00432974 46.60151577 -0.01364708 C50.78708745 -0.0244856 54.9725539 -0.02103805 59.15812874 -0.0132637 C61.16719681 -0.01126132 63.1762744 -0.01372229 65.18533134 -0.02070236 C67.99360338 -0.02831666 70.80115653 -0.01671235 73.609375 0 C74.85710945 -0.00910904 74.85710945 -0.00910904 76.13005066 -0.0184021 C79.27296928 0.01626882 81.94423754 0.21993614 84.88056946 1.38195801 C87.26352952 4.59307185 86.95894257 8.03093768 86.95043945 11.87597656 C86.9638739 12.74310776 86.97730835 13.61023895 86.9911499 14.50364685 C87.02923354 17.37945337 87.03696662 20.2543278 87.04125977 23.13037109 C87.05411704 25.13518657 87.06757387 27.13999829 87.081604 29.14480591 C87.10558717 33.35655393 87.11296287 37.56797364 87.1105957 41.77978516 C87.11019131 47.14778319 87.16456338 52.51363947 87.23368454 57.88113213 C87.27844242 62.02852803 87.2862639 66.17541983 87.2841568 70.32303238 C87.28884473 72.29961585 87.30635538 74.2762158 87.33748627 76.25255966 C87.52116113 89.12949789 86.35283413 97.07552463 78.36938477 107.38818359 C70.43908399 120.86319706 64.65331178 135.88291689 60.61938477 150.95068359 C60.33961792 151.99156128 60.33961792 151.99156128 60.05419922 153.0534668 C59.43805455 155.48902115 58.89450058 157.93125488 58.36938477 160.38818359 C58.10754395 161.6026416 57.84570312 162.81709961 57.57592773 164.06835938 C55.33294081 175.1290876 54.88657895 185.8762836 54.99438477 197.13818359 C54.99936981 198.01658905 55.00435486 198.89499451 55.00949097 199.80001831 C55.18465264 226.14942405 59.57186273 250.00943365 70.88891602 274.01318359 C72.38642607 277.42703237 73.3792484 280.79950533 74.36938477 284.38818359 C63.45170448 284.43445429 52.53404738 284.47002593 41.61628914 284.49180794 C36.54713613 284.50226039 31.47805004 284.51644617 26.40893555 284.5390625 C21.52009292 284.56073887 16.63131479 284.5727412 11.74242783 284.57793808 C9.87404235 284.58164322 8.00566053 284.58887808 6.1373024 284.59964371 C3.52724737 284.61408953 0.91746139 284.61616445 -1.69262695 284.61523438 C-2.47089844 284.62242493 -3.24916992 284.62961548 -4.05102539 284.63702393 C-9.40251091 284.61628792 -9.40251091 284.61628792 -11.63061523 282.38818359 C-11.88246423 280.35428244 -11.88246423 280.35428244 -11.88509083 277.79322147 C-11.89383912 276.33222242 -11.89383912 276.33222242 -11.90276414 274.84170824 C-11.89898482 273.76400571 -11.89520549 272.68630318 -11.89131165 271.57594299 C-11.89513719 270.43703973 -11.89896274 269.29813647 -11.90290421 268.12472099 C-11.91146583 264.95394486 -11.91098982 261.78331561 -11.90672362 258.61253536 C-11.90426538 255.19665406 -11.91325928 251.78080047 -11.92076111 248.3649292 C-11.93353542 241.66919512 -11.93529841 234.97350109 -11.93296085 228.27775688 C-11.93118056 222.83732162 -11.9329211 217.39689856 -11.93718529 211.95646477 C-11.93778048 211.18327613 -11.93837567 210.41008749 -11.93898889 209.6134689 C-11.94020059 208.04292616 -11.94141473 206.47238342 -11.94263127 204.90184068 C-11.95351735 190.16049411 -11.95133928 175.41917039 -11.94524642 160.67782252 C-11.94007639 147.18107358 -11.95133307 133.6843968 -11.97034464 120.18766213 C-11.98969941 106.34153554 -11.99798319 92.49544312 -11.99422139 78.6493029 C-11.99230574 70.87081303 -11.99483218 63.09238459 -12.00893593 55.31390572 C-12.02082069 48.69200103 -12.02228745 42.07019556 -12.01014576 35.44828958 C-12.00423648 32.06766967 -12.00321365 28.68723151 -12.01514816 25.30662346 C-12.02552066 21.64671372 -12.01759141 17.98729909 -12.00483704 14.32740784 C-12.01221132 13.25193603 -12.01958561 12.17646422 -12.02718335 11.06840235 C-12.01997681 10.09179524 -12.01277027 9.11518812 -12.00534534 8.10898685 C-12.00540036 7.26367438 -12.00545538 6.41836191 -12.00551206 5.54743391 C-10.89475651 -0.85005763 -5.29879345 -0.03858974 0 0 Z " fill="#EEEDE8" transform="translate(270.630615234375,487.61181640625)"/>
<path d="M0 0 C0.90270126 -0.00525696 1.80540253 -0.01051392 2.73545837 -0.01593018 C5.72420471 -0.02915156 8.71241997 -0.02038448 11.70117188 -0.01025391 C13.77478132 -0.01227402 15.84839007 -0.01518494 17.92199707 -0.01895142 C22.26984413 -0.02337767 26.61750642 -0.01693395 30.96533203 -0.00292969 C36.54433143 0.01416227 42.1228979 0.00432272 47.70188141 -0.01364708 C51.98434727 -0.02447672 56.26671014 -0.02104233 60.54917908 -0.0132637 C62.60652212 -0.01125943 64.66387446 -0.0137289 66.72120667 -0.02070236 C69.59433844 -0.0283033 72.46676466 -0.01673162 75.33984375 0 C76.19396347 -0.00607269 77.04808319 -0.01214539 77.92808533 -0.0184021 C83.69767908 0.04398754 83.69767908 0.04398754 85.8888014 1.6409958 C87.4959029 3.83275542 87.54306118 5.02163069 87.53906536 7.72413921 C87.54503851 8.61489484 87.55101165 9.50565046 87.5571658 10.42339867 C87.54842728 11.40296102 87.53968875 12.38252336 87.53068542 13.39176941 C87.5332487 14.43155498 87.53581197 15.47134056 87.53845292 16.54263479 C87.54341335 20.04363388 87.52686038 23.54420633 87.51049805 27.04516602 C87.50965226 29.54803965 87.51012596 32.05091403 87.51182556 34.55378723 C87.51250978 39.95096052 87.50397414 45.34799978 87.48711205 50.74513817 C87.4627481 58.54850524 87.45491945 66.35181968 87.45114807 74.15522067 C87.44457949 86.81518016 87.4246073 99.47508173 87.39624023 112.13500977 C87.36871018 124.43416046 87.34747145 136.73329543 87.3347168 149.0324707 C87.33392863 149.79037941 87.33314046 150.54828812 87.3323284 151.32916375 C87.32841334 155.13130585 87.3246222 158.93344806 87.32089269 162.73559034 C87.28978411 194.28649689 87.23671451 225.83733145 87.16992188 257.38818359 C84.56928971 256.11011929 82.19661687 254.79360515 79.84179688 253.10302734 C64.75223925 242.41240676 49.43452497 234.0561014 32.16992188 227.38818359 C31.52200684 227.13552734 30.8740918 226.88287109 30.20654297 226.62255859 C19.97500575 222.70722147 9.53490637 220.7199851 -1.23217773 218.90307617 C-4.80008803 218.19593184 -8.30310393 217.27765765 -11.83007812 216.38818359 C-11.90008499 188.66826347 -11.95302543 160.94835655 -11.98551464 133.2283659 C-12.00099929 120.35818722 -12.0221193 107.4880634 -12.05639648 94.61791992 C-12.08624996 83.40343576 -12.10564149 72.18899132 -12.11234361 60.97446853 C-12.11626274 55.03363081 -12.12550636 49.09290672 -12.1472683 43.15210533 C-12.16756945 37.56503242 -12.17392486 31.97812039 -12.16940117 26.3910141 C-12.17022923 24.33625478 -12.17623263 22.28149029 -12.18769455 20.22676277 C-12.20253898 17.42939188 -12.19906129 14.63263485 -12.19084167 11.83525085 C-12.20394946 10.60520066 -12.20394946 10.60520066 -12.21732205 9.35030097 C-12.17400611 3.92643046 -12.17400611 3.92643046 -10.54948139 1.38405132 C-7.34926372 -0.46949495 -3.60021851 -0.02559714 0 0 Z " fill="#EEEDE7" transform="translate(541.830078125,285.61181640625)"/>
<path d="M0 0 C7.56674875 1.32811294 13.8347451 7.69881734 19 13 C20.17720844 13.86829559 21.36609236 14.72085536 22.5625 15.5625 C27.15690978 18.90069449 31.02022788 22.88532905 34.96313477 26.94946289 C37.69829103 29.84147298 37.69829103 29.84147298 41 32 C42.01351664 33.65848177 43.01120795 35.32665961 44 37 C45.32869858 38.67036393 46.66104368 40.33784732 48 42 C48 42.33 48 42.66 48 43 C43.53160785 43.21278058 40.17737474 42.59138085 36 41 C36 42.98 36 44.96 36 47 C34.44219668 47.67756882 32.87849904 48.34159457 31.3125 49 C30.44238281 49.37125 29.57226562 49.7425 28.67578125 50.125 C25.9427998 51.01870488 23.85299066 51.16449676 21 51 C21 51.66 21 52.32 21 53 C20.34 53 19.68 53 19 53 C18.62875 53.9590625 18.62875 53.9590625 18.25 54.9375 C17 57 17 57 14.875 57.75 C14.25625 57.8325 13.6375 57.915 13 58 C13 58.99 13 59.98 13 61 C10.03 61 7.06 61 4 61 C3.95875 61.7425 3.9175 62.485 3.875 63.25 C3 66 3 66 0.4375 68.25 C-3.62043332 70.31585696 -6.49141077 70.68906281 -11 71 C-11 72.32 -11 73.64 -11 75 C-12.6796875 76.59765625 -12.6796875 76.59765625 -14.875 78.0625 C-17.7240625 79.98740423 -19.04287399 81.06431098 -21 84 C-24.625 84.1875 -24.625 84.1875 -28 84 C-28.061875 84.70125 -28.12375 85.4025 -28.1875 86.125 C-29.30471238 90.07821304 -31.20187383 91.99713289 -34 95 C-34.99 95.495 -34.99 95.495 -36 96 C-36.33 96.99 -36.66 97.98 -37 99 C-38.65 99 -40.3 99 -42 99 C-42.04125 99.66 -42.0825 100.32 -42.125 101 C-43.38694188 105.32665788 -45.93008609 108.71836789 -49 112 C-49.66 112 -50.32 112 -51 112 C-51.33 112.99 -51.66 113.98 -52 115 C-52.99 115 -53.98 115 -55 115 C-55.04125 115.825 -55.0825 116.65 -55.125 117.5 C-56.54186912 123.16747647 -60.53322229 128.22311727 -65 132 C-65.99 132 -66.98 132 -68 132 C-67.93683594 132.88429688 -67.87367188 133.76859375 -67.80859375 134.6796875 C-68.02884155 138.50031267 -68.89899775 140.0152627 -71.0625 143.125 C-73.75412859 147.11885376 -76.28972033 151.13455058 -78.6875 155.3125 C-79.265 156.30378906 -79.8425 157.29507813 -80.4375 158.31640625 C-81.36146891 159.90332285 -82.28029587 161.49328385 -83.1875 163.08984375 C-84.1875 164.75 -84.1875 164.75 -86 167 C-87.32 167 -88.64 167 -90 167 C-89.9175 168.134375 -89.835 169.26875 -89.75 170.4375 C-89.73187141 175.52257067 -91.51248039 179.62414434 -94 184 C-94.66 184.66 -95.32 185.32 -96 186 C-97.32 186 -98.64 186 -100 186 C-99.87625 187.093125 -99.7525 188.18625 -99.625 189.3125 C-99.60388857 195.20259002 -102.47671728 200.40195443 -106 205 C-108.203125 205.81640625 -108.203125 205.81640625 -110 206 C-109.77570313 206.87011719 -109.55140625 207.74023438 -109.3203125 208.63671875 C-108.93117311 212.72268238 -109.80320821 214.32291522 -111.875 217.8125 C-112.42929687 218.76769531 -112.98359375 219.72289062 -113.5546875 220.70703125 C-115 223 -115 223 -116 224 C-116.12375 225.0725 -116.2475 226.145 -116.375 227.25 C-117.00691719 231.04150316 -118.00294354 232.80470967 -120 236 C-120.33 237.19625 -120.66 238.3925 -121 239.625 C-122 243 -122 243 -123.50390625 244.421875 C-125.43141521 246.45506982 -125.54885327 247.87390514 -125.9375 250.625 C-126.55848175 254.25616449 -127.43004514 257.19985745 -129.0625 260.5 C-131.02784338 264.58186702 -131.37891492 268.07856748 -131.65234375 272.55859375 C-132.22073756 276.55012333 -134.00609993 279.52675472 -136 283 C-135.34 283.33 -134.68 283.66 -134 284 C-134 284.99 -134 285.98 -134 287 C-138.55117974 286.37225107 -142.32815455 284.56646381 -146.375 282.5 C-147.07326904 282.14542725 -147.77153809 281.79085449 -148.4909668 281.42553711 C-160.00068928 275.49903398 -171.69410636 269.15111786 -181 260 C-181 259.34 -181 258.68 -181 258 C-181.680625 257.814375 -182.36125 257.62875 -183.0625 257.4375 C-187.21908301 255.40342746 -190.29100615 252.76375616 -193 249 C-193.625 245.3125 -193.625 245.3125 -193 242 C-192.52304687 241.39671875 -192.04609375 240.7934375 -191.5546875 240.171875 C-189.08920131 236.72762797 -188.69348064 232.86920144 -187.84375 228.77734375 C-186.95669573 225.85745678 -186.1409815 225.03221506 -184 223 C-183.39364456 221.03513802 -183.39364456 221.03513802 -183.125 218.875 C-182.27950248 214.45405113 -180.63160175 211.20735274 -178.21875 207.43359375 C-176.87062033 204.74165533 -176.20362028 202.06625215 -175.52294922 199.14331055 C-173.10259235 189.22346321 -169.47345739 180.02808151 -163.6640625 171.62109375 C-161.27993198 167.86580836 -159.75638262 163.86916634 -158.12109375 159.74609375 C-156.68628459 156.2315612 -155.10638854 153.1595828 -153 150 C-152.01 149.67 -151.02 149.34 -150 149 C-149.90589844 148.12859375 -149.81179688 147.2571875 -149.71484375 146.359375 C-148.92682995 142.65614074 -147.64875896 140.39023177 -145.5625 137.25 C-144.94503906 136.30640625 -144.32757813 135.3628125 -143.69140625 134.390625 C-142 132 -142 132 -140 130 C-139.773125 129.175 -139.54625 128.35 -139.3125 127.5 C-137.42231427 122.45950472 -134.59917172 118.01029956 -131 114 C-130.11957031 113.67515625 -129.23914063 113.3503125 -128.33203125 113.015625 C-127.17767578 112.51289062 -127.17767578 112.51289062 -126 112 C-125.60197385 110.34758841 -125.2838785 108.67579888 -125 107 C-123.61021786 104.28830193 -121.93884185 101.78326277 -120.25 99.25 C-119.81945312 98.56550781 -119.38890625 97.88101563 -118.9453125 97.17578125 C-115.67188424 92.22643612 -115.67188424 92.22643612 -112.171875 91.046875 C-111.09679687 91.02367187 -111.09679687 91.02367187 -110 91 C-109.95875 90.34 -109.9175 89.68 -109.875 89 C-108.6141259 84.67700309 -106.17863802 81.18608214 -103 78 C-100.80078125 77.265625 -100.80078125 77.265625 -99 77 C-99.06832031 76.26136719 -99.13664062 75.52273438 -99.20703125 74.76171875 C-98.95052024 71.33995867 -98.00192936 70.28984985 -95.6875 67.8125 C-95.07261719 67.13832031 -94.45773437 66.46414063 -93.82421875 65.76953125 C-90.71033726 62.74899952 -89.44032381 62 -85 62 C-84.9071875 60.9790625 -84.9071875 60.9790625 -84.8125 59.9375 C-83.38241307 54.76718571 -80.43569398 50.95712932 -76 48 C-74.68 48 -73.36 48 -72 48 C-72.103125 47.236875 -72.20625 46.47375 -72.3125 45.6875 C-72.209375 44.800625 -72.10625 43.91375 -72 43 C-69.875 41.5625 -69.875 41.5625 -67 40 C-65.99864949 38.9583807 -65.0203839 37.89422641 -64.0625 36.8125 C-61.67522125 34.30120677 -61.28376477 34.03152942 -57.625 33.625 C-56.75875 33.74875 -55.8925 33.8725 -55 34 C-54.90332031 33.25234375 -54.80664062 32.5046875 -54.70703125 31.734375 C-53.67492925 27.7428203 -51.63693896 26.04725202 -48.54296875 23.44921875 C-43.99376907 20.85666409 -39.13484131 20.94009352 -34 21 C-33.88914062 20.23300781 -33.77828125 19.46601562 -33.6640625 18.67578125 C-32.862001 15.44394519 -31.37191209 13.96180065 -28.765625 11.9375 C-25.86876421 10.39934383 -23.1823357 10.68176643 -20 11 C-20 10.34 -20 9.68 -20 9 C-18.390625 7.52734375 -18.390625 7.52734375 -16.25 5.9375 C-15.55390625 5.41027344 -14.8578125 4.88304687 -14.140625 4.33984375 C-10.70315693 2.18828983 -7.74806104 1.87086565 -3.75 1.9375 C-1.89375 1.9684375 -1.89375 1.9684375 0 2 C0 1.34 0 0.68 0 0 Z " fill="#F66533" transform="translate(589,548)"/>
<path d="M0 0 C0.90270126 -0.00525696 1.80540253 -0.01051392 2.73545837 -0.01593018 C5.72420471 -0.02915156 8.71241997 -0.02038448 11.70117188 -0.01025391 C13.77478132 -0.01227402 15.84839007 -0.01518494 17.92199707 -0.01895142 C22.26984413 -0.02337767 26.61750642 -0.01693395 30.96533203 -0.00292969 C36.54433143 0.01416227 42.1228979 0.00432272 47.70188141 -0.01364708 C51.98434727 -0.02447672 56.26671014 -0.02104233 60.54917908 -0.0132637 C62.60652212 -0.01125943 64.66387446 -0.0137289 66.72120667 -0.02070236 C69.59433844 -0.0283033 72.46676466 -0.01673162 75.33984375 0 C76.19396347 -0.00607269 77.04808319 -0.01214539 77.92808533 -0.0184021 C83.68988241 0.04390324 83.68988241 0.04390324 85.88932514 1.62132549 C87.54323308 3.90324654 87.54002658 5.23340446 87.53068542 8.03886414 C87.53480942 8.99378754 87.53893341 9.94871094 87.54318237 10.93257141 C87.53239655 11.97841904 87.52161072 13.02426666 87.51049805 14.10180664 C87.51115517 15.75569397 87.51115517 15.75569397 87.51182556 17.44299316 C87.50973186 21.09547498 87.48637276 24.74750049 87.46289062 28.39990234 C87.45729676 30.92910003 87.45302567 33.45830096 87.45002747 35.98750305 C87.43973478 41.9692518 87.41607925 47.95080401 87.385979 53.93247396 C87.3524536 60.74254793 87.33595369 67.55262973 87.32089269 74.36276567 C87.28953007 88.37132934 87.23675798 102.37974748 87.16992188 116.38818359 C86.48380325 116.49986374 85.79768463 116.61154388 85.09077454 116.72660828 C81.94613962 117.24002516 78.80217364 117.75743318 75.65820312 118.27490234 C74.03936218 118.53829407 74.03936218 118.53829407 72.38781738 118.80700684 C43.58678401 123.56238599 17.46779724 134.84441436 -5.83007812 152.38818359 C-7.8255204 153.72832832 -9.82493522 155.06259705 -11.83007812 156.38818359 C-11.90010299 136.49129714 -11.95303426 116.59443563 -11.98551464 96.69745159 C-12.00099548 87.45931064 -12.02210818 78.22124617 -12.05639648 68.9831543 C-12.08626167 60.93293276 -12.10564427 52.88276661 -12.11234361 44.83249122 C-12.11626077 40.56837442 -12.12549175 36.30441607 -12.1472683 32.04034996 C-12.16758803 28.02914994 -12.17392114 24.01817408 -12.16940117 20.00692749 C-12.1702284 18.5326853 -12.17622099 17.05843583 -12.18769455 15.58423805 C-12.20256627 13.57535308 -12.1972566 11.5663486 -12.19084167 9.55741882 C-12.19360705 8.43190959 -12.19637243 7.30640036 -12.19922161 6.14678478 C-11.83007812 3.38818359 -11.83007812 3.38818359 -10.54948139 1.52641582 C-7.42419427 -0.54250111 -3.62869473 -0.0257996 0 0 Z " fill="#EEEDE7" transform="translate(405.830078125,385.61181640625)"/>
<path d="M0 0 C1.97338321 1.67438575 3.70666263 3.45853216 5.44921875 5.37109375 C6.92170117 7.10228163 6.92170117 7.10228163 9 8 C10.01351664 9.65848177 11.01120795 11.32665961 12 13 C13.32869858 14.67036393 14.66104368 16.33784732 16 18 C16 18.33 16 18.66 16 19 C11.53160785 19.21278058 8.17737474 18.59138085 4 17 C4 18.98 4 20.96 4 23 C2.44219668 23.67756882 0.87849904 24.34159457 -0.6875 25 C-1.99267578 25.556875 -1.99267578 25.556875 -3.32421875 26.125 C-6.0572002 27.01870488 -8.14700934 27.16449676 -11 27 C-11 27.66 -11 28.32 -11 29 C-11.66 29 -12.32 29 -13 29 C-13.37125 29.9590625 -13.37125 29.9590625 -13.75 30.9375 C-15 33 -15 33 -17.125 33.75 C-17.74375 33.8325 -18.3625 33.915 -19 34 C-19 34.99 -19 35.98 -19 37 C-21.97 37 -24.94 37 -28 37 C-28.04125 37.7425 -28.0825 38.485 -28.125 39.25 C-29 42 -29 42 -31.5625 44.25 C-35.62043332 46.31585696 -38.49141077 46.68906281 -43 47 C-43 48.32 -43 49.64 -43 51 C-44.6796875 52.59765625 -44.6796875 52.59765625 -46.875 54.0625 C-49.7240625 55.98740423 -51.04287399 57.06431098 -53 60 C-56.625 60.1875 -56.625 60.1875 -60 60 C-60.061875 60.70125 -60.12375 61.4025 -60.1875 62.125 C-61.30471238 66.07821304 -63.20187383 67.99713289 -66 71 C-66.99 71.495 -66.99 71.495 -68 72 C-68.495 73.485 -68.495 73.485 -69 75 C-70.65 75 -72.3 75 -74 75 C-74.04125 75.66 -74.0825 76.32 -74.125 77 C-75.38694188 81.32665788 -77.93008609 84.71836789 -81 88 C-81.66 88 -82.32 88 -83 88 C-83.495 89.485 -83.495 89.485 -84 91 C-84.99 91 -85.98 91 -87 91 C-87.04125 91.825 -87.0825 92.65 -87.125 93.5 C-88.54186912 99.16747647 -92.53322229 104.22311727 -97 108 C-97.99 108 -98.98 108 -100 108 C-99.93683594 108.88429688 -99.87367188 109.76859375 -99.80859375 110.6796875 C-100.02884155 114.50031267 -100.89899775 116.0152627 -103.0625 119.125 C-105.75412859 123.11885376 -108.28972033 127.13455058 -110.6875 131.3125 C-111.265 132.30378906 -111.8425 133.29507813 -112.4375 134.31640625 C-113.36146891 135.90332285 -114.28029587 137.49328385 -115.1875 139.08984375 C-116.1875 140.75 -116.1875 140.75 -118 143 C-119.32 143 -120.64 143 -122 143 C-121.9175 144.134375 -121.835 145.26875 -121.75 146.4375 C-121.73187141 151.52257067 -123.51248039 155.62414434 -126 160 C-126.66 160.66 -127.32 161.32 -128 162 C-129.32 162 -130.64 162 -132 162 C-131.87625 163.093125 -131.7525 164.18625 -131.625 165.3125 C-131.60388857 171.20259002 -134.47671728 176.40195443 -138 181 C-140.203125 181.81640625 -140.203125 181.81640625 -142 182 C-141.77570313 182.87011719 -141.55140625 183.74023438 -141.3203125 184.63671875 C-140.93117311 188.72268238 -141.80320821 190.32291522 -143.875 193.8125 C-144.70644531 195.24529297 -144.70644531 195.24529297 -145.5546875 196.70703125 C-147 199 -147 199 -148 200 C-148.12375 201.0725 -148.2475 202.145 -148.375 203.25 C-149.00691719 207.04150316 -150.00294354 208.80470967 -152 212 C-152.33 213.19625 -152.66 214.3925 -153 215.625 C-154 219 -154 219 -155.50390625 220.421875 C-157.43141521 222.45506982 -157.54885327 223.87390514 -157.9375 226.625 C-158.55848175 230.25616449 -159.43004514 233.19985745 -161.0625 236.5 C-163.02784338 240.58186702 -163.37891492 244.07856748 -163.65234375 248.55859375 C-164.22073756 252.55012333 -166.00609993 255.52675472 -168 259 C-167.34 259.33 -166.68 259.66 -166 260 C-166 260.99 -166 261.98 -166 263 C-170.84770165 262.37510096 -174.71345569 260.33154218 -179 258.125 C-179.69867188 257.77308594 -180.39734375 257.42117188 -181.1171875 257.05859375 C-188.96073013 253.07762588 -188.96073013 253.07762588 -192 251 C-192 250.34 -192 249.68 -192 249 C-189.69 249.33 -187.38 249.66 -185 250 C-185.37253906 249.19175781 -185.74507813 248.38351562 -186.12890625 247.55078125 C-186.83853516 245.94783203 -186.83853516 245.94783203 -187.5625 244.3125 C-188.03816406 243.25675781 -188.51382812 242.20101562 -189.00390625 241.11328125 C-190.06598491 237.7937648 -190.2247771 236.23772095 -189 233 C-187.4840625 232.01 -187.4840625 232.01 -185.9375 231 C-184.19343377 229.84412704 -184.19343377 229.84412704 -183 228 C-182.68079218 224.61380896 -182.81173962 221.44703226 -183.08203125 218.05859375 C-183 215 -183 215 -181.7421875 212.61328125 C-180 211 -180 211 -176.3125 210.75 C-175.219375 210.8325 -174.12625 210.915 -173 211 C-173.15597656 210.35933594 -173.31195313 209.71867188 -173.47265625 209.05859375 C-174.87943839 202.80726384 -175.79998216 197.50996521 -172.75 191.5625 C-170.43146511 189.49237956 -169.01765766 189.87672967 -166 190 C-166.09539062 189.01257813 -166.19078125 188.02515625 -166.2890625 187.0078125 C-166.39992188 185.72648438 -166.51078125 184.44515625 -166.625 183.125 C-166.74101562 181.84882812 -166.85703125 180.57265625 -166.9765625 179.2578125 C-166.98429687 178.18273437 -166.99203125 177.10765625 -167 176 C-165 174 -165 174 -161.375 173.875 C-160.26125 173.91625 -159.1475 173.9575 -158 174 C-158.02320313 172.72382812 -158.04640625 171.44765625 -158.0703125 170.1328125 C-158.08906829 168.4635475 -158.10726869 166.7942762 -158.125 165.125 C-158.14175781 164.28324219 -158.15851563 163.44148437 -158.17578125 162.57421875 C-158.18544922 161.36572266 -158.18544922 161.36572266 -158.1953125 160.1328125 C-158.21102295 159.01737061 -158.21102295 159.01737061 -158.22705078 157.87939453 C-158 156 -158 156 -156 154 C-152.375 153.875 -152.375 153.875 -149 154 C-149.2475 153.2575 -149.2475 153.2575 -149.5 152.5 C-150.53417585 147.32912074 -150.91552607 141.58154097 -148 137 C-144.71071522 135.8192311 -143.34715311 135.8842823 -140 137 C-139.98582031 135.95199219 -139.97164063 134.90398437 -139.95703125 133.82421875 C-139.91012818 132.44526858 -139.86188079 131.06636367 -139.8125 129.6875 C-139.80669922 128.99720703 -139.80089844 128.30691406 -139.79492188 127.59570312 C-139.70703125 125.57421875 -139.70703125 125.57421875 -139 122 C-135.75605221 119.20767142 -134.34134641 119 -130 119 C-130 119.66 -130 120.32 -130 121 C-127.525 120.505 -127.525 120.505 -125 120 C-125.32484375 119.28972656 -125.6496875 118.57945312 -125.984375 117.84765625 C-127.0549684 114.84587706 -127.26765086 112.61024291 -127.25 109.4375 C-127.25773437 108.04337891 -127.25773437 108.04337891 -127.265625 106.62109375 C-126.98763141 103.87795108 -126.59416604 102.24725987 -125 100 C-121.375 99.25 -121.375 99.25 -118 99 C-117.81824219 98.16855469 -117.63648438 97.33710937 -117.44921875 96.48046875 C-117.19785156 95.39378906 -116.94648438 94.30710937 -116.6875 93.1875 C-116.44386719 92.10855469 -116.20023437 91.02960938 -115.94921875 89.91796875 C-115.00459162 87.01411499 -114.50353573 85.70051484 -112 84 C-109.27492202 83.60921444 -106.76878044 83.86383047 -104 84 C-103.67 84.66 -103.34 85.32 -103 86 C-102.7763932 83.0745356 -102.7763932 83.0745356 -104 81 C-104.40454244 75.74094829 -103.66166853 72.54701708 -101 68 C-97.62007831 68.53771481 -94.31262111 69.14303932 -91 70 C-91.03480469 69.25234375 -91.06960938 68.5046875 -91.10546875 67.734375 C-91.13253906 66.74953125 -91.15960937 65.7646875 -91.1875 64.75 C-91.22230469 63.77546875 -91.25710938 62.8009375 -91.29296875 61.796875 C-90.95655179 58.58521441 -90.26415136 57.26947877 -88 55 C-83.31074407 54.36055601 -79.42170487 55.58505444 -75 57 C-75.226875 56.01 -75.45375 55.02 -75.6875 54 C-76.47829466 48.50898916 -74.21801201 44.21456729 -71.625 39.5 C-70 38 -70 38 -67.5 37.5625 C-64.61169991 38.06795252 -63.88349586 38.8474333 -62 41 C-61.34 41 -60.68 41 -60 41 C-60.05800781 40.39671875 -60.11601563 39.7934375 -60.17578125 39.171875 C-60.54059127 32.70952604 -60.54059127 32.70952604 -58 29.375 C-53.83857623 27.46768077 -51.44580052 28.09576939 -47 29 C-47.0825 28.113125 -47.165 27.22625 -47.25 26.3125 C-46.94337175 22.24967563 -45.80119482 20.88122896 -43 18 C-39.77786243 15.85190829 -38.72224599 15.70613847 -35 16 C-34.67 16.33 -34.34 16.66 -34 17 C-31.67182036 17.36760731 -29.3381615 17.70241581 -27 18 C-27.33 17.67 -27.66 17.34 -28 17 C-28.375 14.25 -28.375 14.25 -28 11 C-25.65195406 7.91399676 -24.26150426 6.21025071 -20.375 5.5625 C-18 6 -18 6 -15 8 C-11.93443402 8.73343428 -11.93443402 8.73343428 -9 9 C-8.67 8.67 -8.34 8.34 -8 8 C-8.99 7.34 -9.98 6.68 -11 6 C-10.03628506 3.59071265 -9.34789837 2.23992991 -7.1875 0.75 C-4.34022788 -0.22620758 -2.99831955 -0.62755525 0 0 Z " fill="#F46837" transform="translate(621,572)"/>
<path d="M0 0 C0.33 0 0.66 0 1 0 C1.03963867 0.64211426 1.07927734 1.28422852 1.12011719 1.94580078 C2.99936972 31.17804106 7.9527804 57.09402734 22 83 C22.31549805 83.60005859 22.63099609 84.20011719 22.95605469 84.81835938 C42.47721011 121.91866927 78.72460217 150.8801966 118.40429688 163.78173828 C133.53309348 168.34816485 149.22573579 171.10303204 165 172 C165 172.33 165 172.66 165 173 C110.55 173 56.1 173 0 173 C0 115.91 0 58.82 0 0 Z " fill="#FDFDFD" transform="translate(0,851)"/>
<path d="M0 0 C53.46 0 106.92 0 162 0 C162 0.33 162 0.66 162 1 C160.94425781 1.08636719 159.88851562 1.17273438 158.80078125 1.26171875 C137.5177382 3.20450854 117.19205895 8.54211935 98 18 C97.36465332 18.30502441 96.72930664 18.61004883 96.07470703 18.92431641 C55.38160158 38.58325162 24.79767301 74.50068885 9.59765625 116.82421875 C3.81205467 133.76130908 1.40763709 151.16587737 1 169 C0.67 169 0.34 169 0 169 C0 113.23 0 57.46 0 0 Z " fill="#FDFDFE" transform="translate(0,0)"/>
<path d="M0 0 C0.33 0 0.66 0 1 0 C1 52.14 1 104.28 1 158 C-52.79 158 -106.58 158 -162 158 C-162 157.67 -162 157.34 -162 157 C-160.77667969 156.82984375 -159.55335938 156.6596875 -158.29296875 156.484375 C-116.14062898 150.48673058 -81.48915827 136.36288071 -50 107 C-49.26007813 106.31421875 -48.52015625 105.6284375 -47.7578125 104.921875 C-18.33566243 76.65148169 -6.06518926 39.24333468 0 0 Z " fill="#FCFDFD" transform="translate(1023,866)"/>
<path d="M0 0 C55.44 0 110.88 0 168 0 C168 52.14 168 104.28 168 158 C167.67 158 167.34 158 167 158 C166.84144531 156.70449219 166.68289063 155.40898437 166.51953125 154.07421875 C161.42681782 114.44125702 145.77612663 80.80792925 118 52 C117.22527344 51.16210938 116.45054687 50.32421875 115.65234375 49.4609375 C99.12198869 32.07508827 78.13545289 20.6032742 56 12 C54.93652344 11.57847656 53.87304688 11.15695312 52.77734375 10.72265625 C35.91208605 4.29201842 17.94669117 1.70047651 0 1 C0 0.67 0 0.34 0 0 Z " fill="#FCFDFD" transform="translate(856,0)"/>
<path d="M0 0 C4.2742558 1.5830577 6.26531794 4.50568404 9 8 C8.43410156 8.18175781 7.86820313 8.36351562 7.28515625 8.55078125 C6.55167969 8.80214844 5.81820312 9.05351563 5.0625 9.3125 C3.96615234 9.67794922 3.96615234 9.67794922 2.84765625 10.05078125 C0.64067976 10.91240441 0.64067976 10.91240441 0 14 C0.99 14.66 1.98 15.32 3 16 C2.34 16.66 1.68 17.32 1 18 C-0.91015625 17.79296875 -0.91015625 17.79296875 -3.0625 17.1875 C-3.77535156 16.99542969 -4.48820313 16.80335938 -5.22265625 16.60546875 C-7 16 -7 16 -8 15 C-11.22909232 14.56363617 -12.57573965 14.69358975 -15.25 16.625 C-17.32465015 19.44059663 -17.68657358 21.55230934 -18 25 C-17.34 25 -16.68 25 -16 25 C-16.33 25.99 -16.66 26.98 -17 28 C-17 27.34 -17 26.68 -17 26 C-18.7015625 26.0309375 -18.7015625 26.0309375 -20.4375 26.0625 C-24 26 -24 26 -25 25 C-27.3295947 24.49758678 -27.3295947 24.49758678 -30 25 C-34.57289118 28.50942811 -35.83162144 31.58297211 -37 37 C-38.2375 36.938125 -39.475 36.87625 -40.75 36.8125 C-43.37606219 36.84043683 -45.01234108 37.00462791 -47.5 37.9375 C-49.94509198 41.29950148 -49.30321243 44.98243527 -49 49 C-49.99 49.33 -50.98 49.66 -52 50 C-52.99 49.34 -53.98 48.68 -55 48 C-55 47.34 -55 46.68 -55 46 C-56.65 46 -58.3 46 -60 46 C-63.39813989 52.27348903 -65.44785363 57.83434196 -65 65 C-66.99954746 65.04254356 -69.00041636 65.04080783 -71 65 C-71.33 64.67 -71.66 64.34 -72 64 C-74.95804573 63.66659529 -74.95804573 63.66659529 -78 64 C-80.18994248 67.28491373 -80.35277339 68.83095639 -80.625 72.6875 C-80.69976563 73.68136719 -80.77453125 74.67523437 -80.8515625 75.69921875 C-80.90054688 76.45847656 -80.94953125 77.21773437 -81 78 C-84.3 77.67 -87.6 77.34 -91 77 C-93.00007696 81.12515873 -93.41508447 84.4340708 -93 89 C-91.64114884 91.40083438 -91.64114884 91.40083438 -90 93 C-91.98 93.99 -91.98 93.99 -94 95 C-94 94.01 -94 93.02 -94 92 C-95.258125 92.0825 -96.51625 92.165 -97.8125 92.25 C-98.52019531 92.29640625 -99.22789062 92.3428125 -99.95703125 92.390625 C-102.80319445 93.23957616 -103.5356375 94.45157212 -105 97 C-105.74261569 99.53999542 -105.74261569 99.53999542 -106.125 102.1875 C-106.91388401 106.91388401 -106.91388401 106.91388401 -108 108 C-110.33297433 108.04092937 -112.66705225 108.04241723 -115 108 C-116.26582219 111.86723631 -116.1118765 115.73151262 -116.0625 119.75 C-116.05798828 120.44738281 -116.05347656 121.14476562 -116.04882812 121.86328125 C-116.0371002 123.57555803 -116.01916653 125.28779033 -116 127 C-115.34 127.33 -114.68 127.66 -114 128 C-114.99 128.66 -115.98 129.32 -117 130 C-117.99 129.67 -118.98 129.34 -120 129 C-120 128.34 -120 127.68 -120 127 C-123.96 128.485 -123.96 128.485 -128 130 C-128.33 135.28 -128.66 140.56 -129 146 C-131.64 145.67 -134.28 145.34 -137 145 C-138.85131483 148.92857754 -139.22004943 151.98775112 -139.125 156.3125 C-139.10695313 157.38113281 -139.08890625 158.44976563 -139.0703125 159.55078125 C-139.04710937 160.35902344 -139.02390625 161.16726563 -139 162 C-140.7015625 162.2165625 -140.7015625 162.2165625 -142.4375 162.4375 C-145.80777201 162.61171478 -145.80777201 162.61171478 -147 164 C-147.15582303 165.34015221 -147.25044142 166.68758903 -147.31640625 168.03515625 C-147.35830078 168.84404297 -147.40019531 169.65292969 -147.44335938 170.48632812 C-147.48267578 171.33646484 -147.52199219 172.18660156 -147.5625 173.0625 C-147.62727539 174.34350586 -147.62727539 174.34350586 -147.69335938 175.65039062 C-147.79976702 177.76672037 -147.90041731 179.88333813 -148 182 C-149.7015625 182.2165625 -149.7015625 182.2165625 -151.4375 182.4375 C-154.80777201 182.61171478 -154.80777201 182.61171478 -156 184 C-156.07271741 186.35313555 -156.08370868 188.70833668 -156.0625 191.0625 C-156.05347656 192.35285156 -156.04445313 193.64320313 -156.03515625 194.97265625 C-156.02355469 195.97167969 -156.01195312 196.97070312 -156 198 C-156.94875 198.2475 -157.8975 198.495 -158.875 198.75 C-161.96970348 199.70652644 -161.96970348 199.70652644 -163.3984375 201.640625 C-164.26853931 205.05323209 -163.95230973 208.28706302 -163.625 211.75 C-163.56828125 212.44738281 -163.5115625 213.14476562 -163.453125 213.86328125 C-163.31232128 215.57639312 -163.15754028 217.28834611 -163 219 C-164.11375 219.103125 -165.2275 219.20625 -166.375 219.3125 C-167.57125 219.539375 -168.7675 219.76625 -170 220 C-172.4401769 223.66026535 -172.04540624 225.07191579 -171.75 229.375 C-171.62148145 235.47624925 -171.62148145 235.47624925 -173.29296875 237.7890625 C-174.82238113 238.91523314 -176.40976727 239.96148067 -178 241 C-179.42285108 245.02913119 -178.77949148 247.36618225 -177.0625 251.1875 C-175 255.85084746 -175 255.85084746 -175 258 C-182.43147621 258.83903764 -185.90927901 257.31154589 -191.8359375 252.82421875 C-193.6592726 251.28721966 -195.3554072 249.72416987 -197 248 C-196.236875 247.443125 -195.47375 246.88625 -194.6875 246.3125 C-192.03859112 244.03320631 -190.61711178 242.06400128 -189 239 C-189.99 238.67 -190.98 238.34 -192 238 C-192 237.34 -192 236.68 -192 236 C-193.65 235.67 -195.3 235.34 -197 235 C-196.1028125 234.566875 -196.1028125 234.566875 -195.1875 234.125 C-189.87918369 231.39500875 -188.05091521 228.44684922 -186 223 C-185.60359306 220.82225835 -185.60359306 220.82225835 -185.4375 218.6875 C-184.96818447 214.73184055 -184.82045308 214.40260818 -182 212 C-178.84906814 207.18092774 -177.46721536 203.72338813 -177 198 C-177.66 198 -178.32 198 -179 198 C-178.875 196.25 -178.875 196.25 -178 194 C-176.03852126 192.61061923 -174.03833424 191.2739589 -172 190 C-171.67 189.34 -171.34 188.68 -171 188 C-170.01 187.67 -169.02 187.34 -168 187 C-168 184.03 -168 181.06 -168 178 C-169.32 177.67 -170.64 177.34 -172 177 C-167.46218487 172.21008403 -167.46218487 172.21008403 -164.9375 171.0625 C-161.75712524 169.31842352 -160.63028218 167.20234 -159 164 C-158.88657456 161.66262581 -158.99922839 159.3908047 -159.11328125 157.0546875 C-159 155 -159 155 -157.1875 152.5 C-155 151 -155 151 -152 150 C-149.05734987 145.74837792 -147.51313463 141.13134625 -147 136 C-147.66 136 -148.32 136 -149 136 C-149 135.01 -149 134.02 -149 133 C-148.18595703 132.65388672 -148.18595703 132.65388672 -147.35546875 132.30078125 C-142.84912199 130.24653669 -139.90440608 128.81702713 -138 124 C-137.28076792 120.30476048 -137.28076792 120.30476048 -137 117 C-134.09399739 115.74335022 -132.20395416 115 -129 115 C-128.71125 114.401875 -128.4225 113.80375 -128.125 113.1875 C-127 111 -127 111 -125 108 C-124.46989735 105.20644318 -124.11417836 102.41434789 -123.7578125 99.59375 C-122.83069518 96.42052372 -121.78361472 95.67949939 -119 94 C-115.24019786 91.55175675 -114.15961527 90.73668587 -113.1875 86.25 C-113.125625 85.1775 -113.06375 84.105 -113 83 C-112.360625 82.896875 -111.72125 82.79375 -111.0625 82.6875 C-110.381875 82.460625 -109.70125 82.23375 -109 82 C-108.505 80.515 -108.505 80.515 -108 79 C-107.030625 78.46375 -106.06125 77.9275 -105.0625 77.375 C-101.28972442 74.44917404 -101.06661332 72.67263929 -100.421875 68.12109375 C-100 66 -100 66 -98 63 C-95.6171875 62.48828125 -95.6171875 62.48828125 -92.875 62.3125 C-91.96492187 62.24675781 -91.05484375 62.18101562 -90.1171875 62.11328125 C-89.06917969 62.05720703 -89.06917969 62.05720703 -88 62 C-85.75274487 57.63768121 -86.19940165 54.75320278 -87 50 C-85.86820313 49.75765625 -84.73640625 49.5153125 -83.5703125 49.265625 C-82.08834148 48.92796072 -80.60658117 48.58937073 -79.125 48.25 C-78.37863281 48.09273437 -77.63226562 47.93546875 -76.86328125 47.7734375 C-72.57319045 46.86835272 -72.57319045 46.86835272 -69.5546875 43.921875 C-69.28011719 42.97054687 -69.28011719 42.97054687 -69 42 C-68.67 41.67 -68.34 41.34 -68 41 C-67.95907063 38.66702567 -67.95758277 36.33294775 -68 34 C-65.10511815 32.3749186 -62.80091288 31.70315566 -59.5 31.4375 C-56.47882676 31.18401115 -53.98830273 30.74707568 -51 30 C-50.34 27.36 -49.68 24.72 -49 22 C-47.35 22.33 -45.7 22.66 -44 23 C-44 22.34 -44 21.68 -44 21 C-41.36 20.67 -38.72 20.34 -36 20 C-35.01 17.36 -34.02 14.72 -33 12 C-31.64455078 11.96132813 -31.64455078 11.96132813 -30.26171875 11.921875 C-29.08222656 11.86515625 -27.90273438 11.8084375 -26.6875 11.75 C-24.92986328 11.68039062 -24.92986328 11.68039062 -23.13671875 11.609375 C-19.93599108 11.29469013 -19.93599108 11.29469013 -18.125 9.09375 C-17.02452921 7.04565159 -16.4075979 5.28254826 -16 3 C-10.84828377 2.90961901 -6.08086796 3.15318867 -1 4 C-0.67 2.68 -0.34 1.36 0 0 Z " fill="#F66231" transform="translate(611,564)"/>
<path d="M0 0 C7.52445011 1.3206887 13.91308455 7.60478664 19 13 C19.99 13.66 20.98 14.32 22 15 C22.25 17.5625 22.25 17.5625 22 20 C21.505 20.495 21.505 20.495 21 21 C18.66045145 20.71352467 16.32787927 20.36950465 14 20 C12.52156383 19.80682454 11.04239097 19.6191948 9.5625 19.4375 C8.386875 19.293125 7.21125 19.14875 6 19 C5.896875 19.7425 5.79375 20.485 5.6875 21.25 C4.92831428 24.28674287 4.14598083 25.73956686 2 28 C-3.42258902 29.10131756 -8.94657731 28.12775692 -14 26 C-14.34681622 21.83820535 -13.63162831 20.17988421 -11 17 C-11 16.34 -11 15.68 -11 15 C-13.31 14.67 -15.62 14.34 -18 14 C-18 13.67 -18 13.34 -18 13 C-17.41992188 12.90203125 -16.83984375 12.8040625 -16.2421875 12.703125 C-11.05603522 11.71039618 -7.07665014 10.56706887 -3 7 C-2.03780298 4.37233611 -2.03780298 4.37233611 -2 2 C-1.34 2 -0.68 2 0 2 C0 1.34 0 0.68 0 0 Z " fill="#F36938" transform="translate(589,548)"/>
<path d="M0 0 C2.475 0.495 2.475 0.495 5 1 C4.74918966 6.14161188 2.99309074 8.95928433 -0.3671875 12.65234375 C-2 14 -2 14 -4.875 14.4375 C-5.57625 14.293125 -6.2775 14.14875 -7 14 C-6.87625 14.825 -6.7525 15.65 -6.625 16.5 C-7.16608179 21.55009671 -9.80981051 24.19892316 -13 28 C-13.45246094 28.6084375 -13.90492188 29.216875 -14.37109375 29.84375 C-15.625 31.5 -15.625 31.5 -18 34 C-19.32 34 -20.64 34 -22 34 C-22.77267119 28.68402218 -20.16610918 25.45148415 -17.3125 21.25 C-16.87744141 20.56550781 -16.44238281 19.88101563 -15.99414062 19.17578125 C-12.69035596 14.23234049 -12.69035596 14.23234049 -9.16796875 13.046875 C-8.45253906 13.03140625 -7.73710937 13.0159375 -7 13 C-6.95875 12.34 -6.9175 11.68 -6.875 11 C-5.5948343 6.61086045 -2.85190633 3.51473471 0 0 Z " fill="#F8F4F1" transform="translate(486,626)"/>
<path d="M0 0 C0.38937141 3.4069998 0.15388085 4.76368298 -1.75 7.6875 C-5.61790456 11.66284635 -8.7731537 12.26781437 -14.25 12.625 C-15.86648438 12.73714844 -15.86648438 12.73714844 -17.515625 12.8515625 C-18.33546875 12.90054688 -19.1553125 12.94953125 -20 13 C-20.640625 10.69921875 -20.640625 10.69921875 -21 8 C-17.61298453 3.20172808 -15.01627758 0.35772667 -9.125 -0.6875 C-5.88142459 -1.03459848 -3.17007386 -0.89158327 0 0 Z " fill="#FBF5F2" transform="translate(544,600)"/>
<path d="M0 0 C3 1 3 1 4 3 C4.41573371 6.65845661 4.13702363 8.70808008 2.5625 12.0625 C-0.73064982 15.83757419 -4.38593888 18.07959887 -9 20 C-9.99 20 -10.98 20 -12 20 C-12.34963286 14.17278563 -12.19639756 10.11423609 -9 5 C-8 4 -8 4 -4.9375 3.9375 C-3.4834375 3.9684375 -3.4834375 3.9684375 -2 4 C-1.34 2.68 -0.68 1.36 0 0 Z " fill="#FBF7F5" transform="translate(448,720)"/>
<path d="M0 0 C0.86625 0.144375 1.7325 0.28875 2.625 0.4375 C2.625 1.0975 2.625 1.7575 2.625 2.4375 C4.048125 2.375625 4.048125 2.375625 5.5 2.3125 C8.625 2.4375 8.625 2.4375 10.625 4.4375 C10.30684975 7.72505263 9.11675937 9.34442213 6.625 11.4375 C3.58286733 12.95856634 0.34452428 12.81179338 -3 13 C-3.70640625 13.04318359 -4.4128125 13.08636719 -5.140625 13.13085938 C-6.88518537 13.23694751 -8.63006697 13.33772889 -10.375 13.4375 C-9.5841248 6.8685836 -7.14339466 0.9259956 0 0 Z " fill="#FBF4F1" transform="translate(551.375,583.5625)"/>
<path d="M0 0 C0.609319 7.06810036 0.609319 7.06810036 -2.125 11.25 C-4.97012522 13.97142412 -7.52148044 16.14972364 -11 18 C-13.18359375 17.59765625 -13.18359375 17.59765625 -15 17 C-15.62188935 6.98067166 -15.62188935 6.98067166 -13.375 3.4375 C-8.99979856 0.78935176 -5.10985589 -0.30057976 0 0 Z " fill="#FBF7F5" transform="translate(442,743)"/>
<path d="M0 0 C0.97261793 3.09469341 1.19911562 4.54007097 -0.109375 7.5625 C-2.5165896 10.66601634 -4.13811653 11.00941647 -7.9375 11.8125 C-8.97777344 12.04582031 -10.01804687 12.27914062 -11.08984375 12.51953125 C-14 13 -14 13 -18 13 C-18.39549419 9.70421505 -18.68681882 7.09938707 -16.875 4.19921875 C-14.19115218 1.27074939 -12.79553913 0.07649415 -8.75 -0.3125 C-7.8425 -0.209375 -6.935 -0.10625 -6 0 C-3.50907189 -1.24546405 -2.58919267 -0.7767578 0 0 Z " fill="#FBF6F3" transform="translate(525,616)"/>
<path d="M0 0 C0.43795472 4.37954716 0.32894381 6.4816643 -2.0625 10.25 C-5.01579178 13.37948248 -7.90321034 14.73371956 -12 16 C-14.28867185 15.75908717 -15.38430857 15.61569143 -17 14 C-17.48089206 10.63375555 -16.98600738 8.97084871 -15.5 5.875 C-11.42473118 1.18844086 -6.22103014 -0.58322158 0 0 Z " fill="#FCF7F5" transform="translate(463,701)"/>
<path d="M0 0 C2.125 0.375 2.125 0.375 4 1 C4.68359375 3.2421875 4.68359375 3.2421875 5 6 C2.49207586 10.64178501 -1.34594004 14.08932729 -6.25 16 C-10 17 -10 17 -13 17 C-13.60822898 9.82289803 -13.60822898 9.82289803 -10.875 6.125 C-7.92645503 3.94564067 -5.49507825 3.00968927 -2 2 C-1.34 1.34 -0.68 0.68 0 0 Z " fill="#FBF7F3" transform="translate(482,664)"/>
<path d="M0 0 C0.78375 0.04125 1.5675 0.0825 2.375 0.125 C2.643125 0.74375 2.91125 1.3625 3.1875 2 C4.33056848 4.4245233 4.33056848 4.4245233 7.375 6.125 C7.00844579 12.23423686 5.69880251 15.00230459 1.375 19.125 C0.055 19.125 -1.265 19.125 -2.625 19.125 C-4.42405658 15.26273965 -4.89611493 12.18687948 -4.875 7.9375 C-4.88015625 6.89207031 -4.8853125 5.84664062 -4.890625 4.76953125 C-4.5232318 1.11180782 -3.69824062 0.1761067 0 0 Z " fill="#FCF7F5" transform="translate(467.625,725.875)"/>
<path d="M0 0 C3.78710721 0.32931367 6.44059928 1.63381142 9.875 3.25 C9.27729885 8.62931034 9.27729885 8.62931034 7.78125 10.9375 C4.82989381 12.96958131 2.21025011 12.53445643 -1.3125 12.4375 C-2.58480469 12.41042969 -3.85710938 12.38335938 -5.16796875 12.35546875 C-6.14378906 12.32066406 -7.11960937 12.28585937 -8.125 12.25 C-8.4296875 6.6015625 -8.4296875 6.6015625 -5.6875 3.4375 C-4.841875 2.715625 -3.99625 1.99375 -3.125 1.25 C-2.125 0.25 -2.125 0.25 0 0 Z " fill="#FBF7F4" transform="translate(583.125,587.75)"/>
<path d="M0 0 C2.3125 2.1875 2.3125 2.1875 4 5 C4.11012268 9.18466183 1.84249471 12.29650703 -0.59765625 15.54296875 C-2 17 -2 17 -4.6875 18.0625 C-7 18 -7 18 -9 16 C-9.37109375 13.06640625 -9.37109375 13.06640625 -9.4375 9.5625 C-9.47746094 8.40878906 -9.51742188 7.25507812 -9.55859375 6.06640625 C-9 3 -9 3 -6.72265625 1.08984375 C-4 0 -4 0 0 0 Z " fill="#FAF5F1" transform="translate(491,691)"/>
<path d="M0 0 C0.33 0.33 0.66 0.66 1 1 C2.34747084 1.23075082 3.70377565 1.41153063 5.0625 1.5625 C6.361875 1.706875 7.66125 1.85125 9 2 C9.75 3.6875 9.75 3.6875 10 6 C8.6875 8.75 8.6875 8.75 6 11 C0.41333391 11.9454358 -4.7850599 11.19576425 -10 9 C-10.35882213 5.77060081 -10.27258004 4.38790237 -8.375 1.6875 C-5.3770462 -0.44262507 -3.60277895 -0.40030877 0 0 Z " fill="#FAF7F5" transform="translate(585,565)"/>
<path d="M0 0 C0.99 0.66 1.98 1.32 3 2 C5.32108669 2.70812814 7.65377147 3.38024152 10 4 C9.77069943 7.21020798 8.93806165 8.05574452 6.5 10.25 C2.2244465 12.38777675 -1.29069208 12.77142949 -6 12 C-6.99 11.34 -7.98 10.68 -9 10 C-9.55462605 6.3553145 -9.46725216 4.65761415 -7.3125 1.625 C-4.55803405 -0.31057067 -3.29775432 -0.50734682 0 0 Z " fill="#FBF7F4" transform="translate(603,578)"/>
<path d="M0 0 C3.125 -0.1875 3.125 -0.1875 6 0 C6.33 0.99 6.66 1.98 7 3 C7.99 3 8.98 3 10 3 C10.31974464 7.07674421 10.43803342 9.32029296 8.1875 12.8125 C6 15 6 15 3 17 C0.875 16.75 0.875 16.75 -1 16 C-2.29376578 13.41246844 -2.16832397 11.45041015 -2.1875 8.5625 C-2.20167969 7.59441406 -2.21585937 6.62632812 -2.23046875 5.62890625 C-2 3 -2 3 0 0 Z " fill="#FBF7F4" transform="translate(496,673)"/>
<path d="M0 0 C1.67542976 0.28604898 3.34385343 0.61781233 5 1 C4.63608932 7.30778515 4.63608932 7.30778515 1.875 10.3125 C-2.88868386 13.10857531 -7.47988078 14.33455268 -13 14 C-13.54456219 10.29697712 -13.01235988 9.01910164 -10.9375 5.8125 C-8.10117087 2.64296315 -5.13874408 1.87550355 -1 1 C-0.67 0.67 -0.34 0.34 0 0 Z " fill="#FAF5F3" transform="translate(506,631)"/>
<path d="M0 0 C3.7509803 0.29613002 6.46077367 1.17863741 9 4 C9.66656179 8.41597187 9.29737701 10.48198843 7.0625 14.375 C5 17 5 17 4 18 C2.33382885 18.04063832 0.66611905 18.042721 -1 18 C-1.82183247 14.3905118 -2.16225746 11.01305639 -2.1875 7.3125 C-2.20167969 6.35988281 -2.21585937 5.40726563 -2.23046875 4.42578125 C-2 2 -2 2 0 0 Z " fill="#FBF6F3" transform="translate(474,708)"/>
<path d="M0 0 C0.375 2.6875 0.375 2.6875 0 6 C-4.08934998 10.18671546 -8.85926103 13.7951692 -14.875 14.1875 C-15.57625 14.125625 -16.2775 14.06375 -17 14 C-17.4247346 9.6677071 -17.47048413 7.65037512 -14.875 4.0625 C-11.56851204 1.69045429 -9.9760803 1.53766508 -6 2 C-6 1.34 -6 0.68 -6 0 C-3.50907189 -1.24546405 -2.58919267 -0.7767578 0 0 Z " fill="#FAF7F4" transform="translate(498,648)"/>
<path d="M0 0 C0.45858928 5.73236598 -0.34354939 8.55296547 -4 13 C-6.4375 15.4375 -6.4375 15.4375 -9 17 C-11.8125 16.75 -11.8125 16.75 -14 16 C-14.30678849 12.08844679 -14.43485181 9.71917799 -12.375 6.3125 C-8.40493129 2.44690678 -5.65987392 0 0 0 Z " fill="#FAF4F1" transform="translate(426,780)"/>
<path d="M0 0 C-0.45344405 4.87452354 -1.47087773 7.56374937 -5 11 C-8.58760056 12.95687303 -10.83968994 14.12343724 -14.9375 13.6875 C-15.618125 13.460625 -16.29875 13.23375 -17 13 C-16.61121946 7.55707242 -14.93230248 4.76133281 -11 1 C-7.06436124 -0.58806476 -4.05078562 -1.62031425 0 0 Z " fill="#FAF5F2" transform="translate(474,684)"/>
<path d="M0 0 C1.46341463 7.07317073 1.46341463 7.07317073 -0.6875 11.375 C-2.82137354 13.79723483 -3.96562388 15.05175746 -7 16 C-8.32 16 -9.64 16 -11 16 C-12.20539165 11.05789424 -11.79432587 7.75496355 -10 3 C-7.55845944 -0.98356617 -4.32861427 -0.2450159 0 0 Z " fill="#FBF5F1" transform="translate(516,656)"/>
<path d="M0 0 C2 2 2 2 2.375 4.375 C2 7 2 7 0.4375 9.3125 C-2.88727372 11.61426642 -5.03191523 11.42515194 -9 11 C-11.4375 10 -11.4375 10 -13 9 C-13.47809948 2.66518189 -13.47809948 2.66518189 -11.5625 0 C-7.69097933 -1.51083733 -3.99030961 -1.02453895 0 0 Z " fill="#FBF6F4" transform="translate(574,602)"/>
<path d="M0 0 C2.1640625 -0.29296875 2.1640625 -0.29296875 4.625 -0.1875 C5.44226563 -0.16042969 6.25953125 -0.13335938 7.1015625 -0.10546875 C8.04128906 -0.05326172 8.04128906 -0.05326172 9 0 C10.12933309 2.58133278 10.85020492 4.23653901 11 7 C9.70793099 9.95991904 7.97204527 12.4522234 6 15 C3.6875 14.8125 3.6875 14.8125 1 14 C-1.29091283 11.2351052 -1.95474962 9.45250383 -2.3125 5.875 C-2 3 -2 3 0 0 Z " fill="#FBF7F3" transform="translate(440,784)"/>
<path d="M0 0 C0.33 0.33 0.66 0.66 1 1 C0.84487237 5.11088223 0.71283894 7.28716106 -2.25 10.25 C-3.1575 10.8275 -4.065 11.405 -5 12 C-6.2684375 12.8971875 -6.2684375 12.8971875 -7.5625 13.8125 C-10.3911295 15.19055027 -11.11327428 14.89714309 -14 14 C-13.65185802 5.69681374 -13.65185802 5.69681374 -11.1875 3.0625 C-10.465625 2.711875 -9.74375 2.36125 -9 2 C-8.0409375 1.4121875 -8.0409375 1.4121875 -7.0625 0.8125 C-4.57290491 -0.16824958 -2.65358134 -0.21515524 0 0 Z " fill="#FBF5F1" transform="translate(433,763)"/>
<path d="M0 0 C2.97439455 0.32155617 4.56059961 0.54731541 6.6796875 2.73046875 C8.29888272 5.51375994 8.21788792 6.90047422 7.8125 10.0625 C7.71582031 10.91972656 7.61914062 11.77695312 7.51953125 12.66015625 C7 15 7 15 5 18 C2.6875 17.9375 2.6875 17.9375 0 17 C-2.42333739 12.96110436 -3.04869923 10.9739846 -2.8125 6.25 C-2 3 -2 3 0 0 Z " fill="#FBF6F4" transform="translate(449,763)"/>
<path d="M0 0 C3.71888239 0.50712033 6.73454239 1.11608215 10 3 C9.76536621 7.06698572 9.62113909 9.32562042 6.8125 12.375 C3.79081505 14.12086241 1.45419117 14.67867989 -2 15 C-3.53597454 11.92805092 -3.2265038 9.39755707 -3 6 C-1.5 2.5625 -1.5 2.5625 0 0 Z " fill="#FBF6F4" transform="translate(520,640)"/>
<path d="M0 0 C0 0.99 0 1.98 0 3 C1.32 3.33 2.64 3.66 4 4 C3.56562003 8.92297294 1.57392937 11.65915298 -2 15 C-5.8125 15.375 -5.8125 15.375 -9 15 C-10.05543251 11.81230857 -9.97424908 10.05213369 -8.75 6.9375 C-8.49734375 6.26589844 -8.2446875 5.59429688 -7.984375 4.90234375 C-5.84571135 0.76929138 -4.79314543 0 0 0 Z " fill="#FBF7F4" transform="translate(555,611)"/>
<path d="M0 0 C3.64716799 1.47623466 6.84414237 3.24247536 9.625 6.0625 C10.125 8.8125 10.125 8.8125 9.625 11.0625 C9.295 11.3925 8.965 11.7225 8.625 12.0625 C6.28545145 11.77602467 3.95287927 11.43200465 1.625 11.0625 C0.16708706 10.89219513 -1.29124779 10.72545971 -2.75 10.5625 C-6.375 10.0625 -6.375 10.0625 -7.375 9.0625 C-7.75 6.75 -7.75 6.75 -7.375 4.0625 C-4.99690582 1.48056918 -3.57824256 0.09416428 0 0 Z " fill="#FAF4F0" transform="translate(601.375,556.9375)"/>
<path d="M0 0 C2.81860884 1.28118584 4.25661365 2.39588217 6.0625 4.9375 C6.0625 9.0847649 5.42063996 11.37641407 3.1875 14.875 C1.0625 16.9375 1.0625 16.9375 -1.9375 16.9375 C-5.96085153 9.01167017 -5.96085153 9.01167017 -5.875 5.0625 C-4.54642266 2.05105803 -3.55318709 -0.11461894 0 0 Z " fill="#FAF4F0" transform="translate(436.9375,802.0625)"/>
<path d="M0 0 C0.7425 0.2475 1.485 0.495 2.25 0.75 C2.7283279 3.93885264 2.66173783 6.06377028 0.984375 8.859375 C-1.12153341 11.66043764 -3.2711548 14.2711548 -5.75 16.75 C-8.375 16.375 -8.375 16.375 -10.75 15.75 C-11.36876457 9.25297202 -8.70832473 6.21369886 -4.8125 1.3125 C-2.75 -0.25 -2.75 -0.25 0 0 Z " fill="#FAF5F2" transform="translate(530.75,662.25)"/>
<path d="M0 0 C4.21878192 -0.19622241 7.17010894 0.19769832 11 2 C10.8125 5.3125 10.8125 5.3125 10 9 C6.41039653 12.16729718 2.66800008 12.54235293 -2 13 C-2.16682272 8.07872966 -2.24828052 4.49656104 0 0 Z " fill="#FBF9F6" transform="translate(533,627)"/>
<path d="M0 0 C4.51478398 0.53115106 7.34666857 2.36620292 11 5 C10.625 7.4375 10.625 7.4375 10 10 C7.23547967 11.38226016 4.9538637 11.09525387 1.875 11.0625 C0.77929688 11.05347656 -0.31640625 11.04445313 -1.4453125 11.03515625 C-2.70988281 11.01775391 -2.70988281 11.01775391 -4 11 C-5.27899344 6.50437637 -5.27899344 6.50437637 -4.00390625 4.19921875 C-2.66927083 2.79947917 -1.33463542 1.39973958 0 0 Z " fill="#FCF7F3" transform="translate(565,573)"/>
<path d="M0 0 C2.125 0.375 2.125 0.375 4 1 C4.84369152 6.48399491 2.85670489 9.79377418 -0.19921875 14.140625 C-2.15602024 16.16109683 -3.12874025 16.6821626 -5.875 17.0625 C-7.421875 17.0315625 -7.421875 17.0315625 -9 17 C-9.43713499 12.49103358 -8.28849004 10.40549371 -5.625 6.8125 C-4.99851562 5.95269531 -4.37203125 5.09289062 -3.7265625 4.20703125 C-2 2 -2 2 0 0 Z " fill="#F9F4EF" transform="translate(506,697)"/>
<path d="M0 0 C3.0625 0.4375 3.0625 0.4375 5 2.625 C6.25372681 5.94368862 6.27367224 7.12696253 5.0625 10.4375 C3.7920036 12.47799422 2.46818804 14.48767465 1.0625 16.4375 C-1.63350373 15.4489653 -2.74308649 14.77772364 -4.1875 12.25 C-5.09573952 8.84410181 -5.20242281 5.94772726 -4.9375 2.4375 C-2.9375 0.4375 -2.9375 0.4375 0 0 Z " fill="#FBF6F3" transform="translate(458.9375,745.5625)"/>
<path d="M0 0 C2.38545048 1.70073784 4.46804743 3.48897999 6 6 C5.7890625 8.140625 5.7890625 8.140625 5 10 C2.06699268 11.46650366 0.27962656 11.36440295 -3 11 C-5.82331888 9.54771727 -8.41407765 7.83771131 -11 6 C-9.2265625 2.15625 -9.2265625 2.15625 -7.1875 0.75 C-4.40988875 -0.20232386 -2.92035951 -0.55625895 0 0 Z " fill="#FAF6F2" transform="translate(621,572)"/>
<path d="M0 0 C1.67542976 0.28604898 3.34385343 0.61781233 5 1 C4.71737056 7.50047717 2.2801995 13.05693775 -2 18 C-4.703125 18.7890625 -4.703125 18.7890625 -7 19 C-6.58458754 12.76881315 -4.53634826 4.53634826 0 0 Z " fill="#F9F3EE" transform="translate(466,774)"/>
<path d="M0 0 C0.74765625 0.09410156 1.4953125 0.18820312 2.265625 0.28515625 C1.97941538 7.01108223 -0.9447137 12.49549495 -5.734375 17.28515625 C-7.40054615 17.32579457 -9.06825595 17.32787725 -10.734375 17.28515625 C-10.59551558 10.89762298 -7.18977332 0.74979065 0 0 Z " fill="#FAF6F2" transform="translate(450.734375,678.71484375)"/>
<path d="M0 0 C0.33 0.99 0.66 1.98 1 3 C-6.44888476 10.87453532 -6.44888476 10.87453532 -12.8125 11.1875 C-14.3903125 11.0946875 -14.3903125 11.0946875 -16 11 C-16.375 8.8125 -16.375 8.8125 -16 6 C-10.63683836 0.63683836 -7.31943406 -0.16635077 0 0 Z " fill="#FBF4F1" transform="translate(587,550)"/>
<path d="M0 0 C1.67542976 0.28604898 3.34385343 0.61781233 5 1 C5.7440423 6.95233839 3.36965168 10.37087195 0 15 C-1 16 -1 16 -4.0625 16.0625 C-5.031875 16.041875 -6.00125 16.02125 -7 16 C-6.56688677 10.36952802 -4.07551604 4.07551604 0 0 Z " fill="#F9F3F0" transform="translate(494,716)"/>
<path d="M0 0 C1.2065625 0.0309375 1.2065625 0.0309375 2.4375 0.0625 C3.03995727 5.72559836 1.85247346 9.33851901 -1.05078125 14.23828125 C-2.5625 16.0625 -2.5625 16.0625 -5.875 17.125 C-6.761875 17.104375 -7.64875 17.08375 -8.5625 17.0625 C-9.37939674 10.85408475 -6.56192645 6.28445228 -3.5625 1.0625 C-2.5625 0.0625 -2.5625 0.0625 0 0 Z " fill="#F9F7F4" transform="translate(486.5625,734.9375)"/>
<path d="M0 0 C0 1.32 0 2.64 0 4 C-0.7321875 3.9175 -1.464375 3.835 -2.21875 3.75 C-5.8843435 4.07949155 -6.94822712 5.41228666 -9.5 8 C-13.39041096 11.94520548 -13.39041096 11.94520548 -16.78125 12.25 C-17.5134375 12.1675 -18.245625 12.085 -19 12 C-19.27096872 9.03979455 -19.32650903 7.48368243 -17.63671875 4.98046875 C-11.9336187 -0.26546897 -7.60675685 -0.88092956 0 0 Z " fill="#FAF3F0" transform="translate(554,570)"/>
<path d="M0 0 C2.25 0.5625 2.25 0.5625 3.25 1.5625 C3.1165836 8.09990377 0.4034586 11.67234232 -3.75 16.5625 C-5.4 16.2325 -7.05 15.9025 -8.75 15.5625 C-8.37669134 9.58956151 -6.69182152 1.36878168 0 0 Z " fill="#F9F3EE" transform="translate(517.75,679.4375)"/>
<path d="M0 0 C-0.12560395 6.02898983 -2.13195705 8.96801187 -6.015625 13.49609375 C-8.49808275 15.37748397 -9.95750573 15.29900375 -13 15 C-13.43864653 10.48356539 -12.27507307 8.36275268 -9.625 4.75 C-8.99851562 3.87859375 -8.37203125 3.0071875 -7.7265625 2.109375 C-5.0615067 -1.14657553 -3.85745306 -1.15723592 0 0 Z " fill="#FAF4EF" transform="translate(464,662)"/>
<path d="M0 0 C1.65 0.33 3.3 0.66 5 1 C5.32712342 7.13053511 5.39366878 11.62669111 2 17 C0.68 17 -0.64 17 -2 17 C-3.5414942 15.4585058 -3.20646315 14.01556186 -3.25 11.875 C-3.22022193 7.22217657 -2.10217312 4.11675569 0 0 Z " fill="#FAF4EF" transform="translate(451,814)"/>
<path d="M0 0 C1.2065625 0.0309375 1.2065625 0.0309375 2.4375 0.0625 C3.3125 2.0625 3.3125 2.0625 3.4375 5.0625 C1.62826866 8.73620638 -0.56792191 12.31552653 -4.5234375 13.796875 C-6.4375 14.0625 -6.4375 14.0625 -9.5625 14.0625 C-10.2734375 12.35546875 -10.2734375 12.35546875 -10.5625 10.0625 C-9.1640625 7.73828125 -9.1640625 7.73828125 -7.1875 5.375 C-6.54039062 4.58738281 -5.89328125 3.79976562 -5.2265625 2.98828125 C-2.70132852 0.06588606 -2.70132852 0.06588606 0 0 Z " fill="#F9F6F3" transform="translate(542.5625,646.9375)"/>
<path d="M0 0 C1.65 0 3.3 0 5 0 C5.84461962 2.90981761 6.18378139 4.50749811 5.109375 7.38671875 C4.66078125 8.14597656 4.2121875 8.90523437 3.75 9.6875 C3.31171875 10.45449219 2.8734375 11.22148438 2.421875 12.01171875 C1 14 1 14 -2 16 C-3.32 16 -4.64 16 -6 16 C-5.59683075 9.68368172 -3.28767869 5.35006016 0 0 Z " fill="#F9F0EA" transform="translate(474,755)"/>
<path d="M0 0 C1.485 0.2475 1.485 0.2475 3 0.5 C3.33 1.82 3.66 3.14 4 4.5 C-0.80239407 9.27744657 -4.07011948 12.35562749 -11 12.5 C-11.71875 10.765625 -11.71875 10.765625 -12 8.5 C-9.19203093 4.22564708 -5.4033418 -0.04428969 0 0 Z " fill="#FAF9F6" transform="translate(573,618.5)"/>
<path d="M0 0 C1.2684375 0.2475 1.2684375 0.2475 2.5625 0.5 C3.234375 2.2734375 3.234375 2.2734375 3.5625 4.5 C2.453125 6.3515625 2.453125 6.3515625 0.8125 8.125 C0.28140625 8.71539063 -0.2496875 9.30578125 -0.796875 9.9140625 C-3.42929425 12.45873444 -4.91996026 13.47970432 -8.625 13.625 C-9.553125 13.58375 -10.48125 13.5425 -11.4375 13.5 C-10.56875542 7.05775124 -6.70897134 0.97585038 0 0 Z " fill="#FAF6F3" transform="translate(557.4375,631.5)"/>
<path d="M0 0 C1.67542976 0.28604898 3.34385343 0.61781233 5 1 C4.73096744 7.32226518 2.44767019 12.40650456 -2 17 C-3.32 17 -4.64 17 -6 17 C-6.81689674 10.79158475 -3.99942645 6.22195228 -1 1 C-0.67 0.67 -0.34 0.34 0 0 Z " fill="#F9F7F4" transform="translate(436,698)"/>
<path d="M0 0 C0.75 1.6875 0.75 1.6875 1 4 C-1.64858605 8.13179424 -5.0384615 11.17032964 -9 14 C-11.875 14.3125 -11.875 14.3125 -14 14 C-14.40094254 10.63088583 -14.24179264 9.33134547 -12.20703125 6.54296875 C-11.41683594 5.76566406 -10.62664063 4.98835937 -9.8125 4.1875 C-9.03519531 3.39730469 -8.25789062 2.60710938 -7.45703125 1.79296875 C-4.66865453 -0.24179264 -3.36911417 -0.40094254 0 0 Z " fill="#FAF5F2" transform="translate(533,582)"/>
<path d="M0 0 C0.2612508 2.98870916 0.24239179 4.59553559 -1.3203125 7.203125 C-6.23511294 12.7774874 -6.23511294 12.7774874 -10.4375 14 C-11.283125 14 -12.12875 14 -13 14 C-13.45796457 10.87057543 -13.50559016 8.76774802 -11.734375 6.078125 C-7.921859 1.59934407 -6.04002239 -0.15894796 0 0 Z " fill="#F9F7F4" transform="translate(504,611)"/>
<path d="M0 0 C1.67542976 0.28604898 3.34385343 0.61781233 5 1 C5.86134401 6.59873607 3.64546931 9.73950909 0.703125 14.2421875 C0.14109375 14.82226562 -0.4209375 15.40234375 -1 16 C-2.32 16 -3.64 16 -5 16 C-5.50212051 9.97455391 -4.12689062 6.14869539 -1 1 C-0.67 0.67 -0.34 0.34 0 0 Z " fill="#FAF2EC" transform="translate(458,795)"/>
<path d="M0 0 C0.375 2.75 0.375 2.75 0 6 C-4.37768392 10.04935763 -8.28637842 10.60595713 -14 11 C-14.33 9.35 -14.66 7.7 -15 6 C-5.77448747 -0.88838269 -5.77448747 -0.88838269 0 0 Z " fill="#F9F2ED" transform="translate(592,608)"/>
<path d="M0 0 C0.7265625 2.23046875 0.7265625 2.23046875 1 5 C-0.4765625 7.23828125 -0.4765625 7.23828125 -2.625 9.3125 C-3.31851563 10.00988281 -4.01203125 10.70726562 -4.7265625 11.42578125 C-7.39489771 13.27344292 -8.82267207 13.32888131 -12 13 C-12.67578125 11.26171875 -12.67578125 11.26171875 -13 9 C-11.85546875 6.89453125 -11.85546875 6.89453125 -10.1875 4.8125 C-9.64480469 4.11769531 -9.10210937 3.42289063 -8.54296875 2.70703125 C-5.86816929 -0.25217726 -3.83307583 -0.10087042 0 0 Z " fill="#F8F4F0" transform="translate(517,597)"/>
<path d="M0 0 C0.99 0.66 1.98 1.32 3 2 C1.70306052 5.89081843 0.29300888 8.48181674 -3 11 C-6.07435378 10.81367553 -7.37371096 9.75085936 -10 8 C-10.5 5.0625 -10.5 5.0625 -10 2 C-6.57844382 -1.03052118 -4.28677561 -1.4665285 0 0 Z " fill="#F8F5F2" transform="translate(419,801)"/>
<path d="M0 0 C1.65 0.33 3.3 0.66 5 1 C4.70063995 6.83752107 1.98722382 11.79800768 -2 16 C-3.32 16 -4.64 16 -6 16 C-7.02388876 9.51537118 -3.42721347 5.16122028 0 0 Z " fill="#FAF1EC" transform="translate(427,717)"/>
<path d="M0 0 C1 1 1 1 1.5625 3.25 C0.87559497 6.60820239 0.15136477 6.95630184 -2.625 8.8125 C-6.20249119 10.84950566 -8.83329952 11.52083756 -13 11 C-12.91750647 8.19521985 -12.39995673 6.46032756 -10.55078125 4.33203125 C-4.73881905 -0.97563922 -4.73881905 -0.97563922 0 0 Z " fill="#FAF7F4" transform="translate(607,597)"/>
<path d="M0 0 C1.65 0.33 3.3 0.66 5 1 C5.58711538 6.63630761 4.4346838 9.69728901 1.484375 14.49609375 C0.99453125 14.99238281 0.5046875 15.48867188 0 16 C-1.32 16 -2.64 16 -4 16 C-3.6083965 10.04492601 -2.62875405 5.37180176 0 0 Z " fill="#F9F2EE" transform="translate(418,735)"/>
<path d="M0 0 C1.65 0.33 3.3 0.66 5 1 C4.68383092 7.16529701 1.50784939 11.17268433 -2 16 C-2.99 15.67 -3.98 15.34 -5 15 C-4.7242265 8.7950962 -3.89359206 4.89839001 0 0 Z " fill="#FAF7F5" transform="translate(412,753)"/>
<path d="M0 0 C0 2.25 0 2.25 -1 5 C-4.92293938 7.80979411 -8.16754157 9 -13 9 C-13.375 6.75 -13.375 6.75 -13 4 C-8.75421472 0.16843768 -5.62304969 -0.44984398 0 0 Z " fill="#F9F6F0" transform="translate(624,590)"/>
<path d="M0 0 C3.8234006 1.27446687 4.04975237 2.56756418 6 6 C7.32869858 7.67036393 8.66104368 9.33784732 10 11 C10 11.33 10 11.66 10 12 C5.85941364 12.19258541 2.61315766 12.16789459 -1 10 C-1.8125 7.375 -1.8125 7.375 -2 5 C-3.65 5 -5.3 5 -7 5 C-6.401875 4.731875 -5.80375 4.46375 -5.1875 4.1875 C-3.02775192 3.01506533 -1.64209744 1.80630718 0 0 Z " fill="#E1653B" transform="translate(627,579)"/>
<path d="M0 0 C0.33 1.65 0.66 3.3 1 5 C-2.0684847 7.97550031 -3.46236331 8.96474513 -7.8125 9.25 C-8.864375 9.1675 -9.91625 9.085 -11 9 C-10.71180351 5.54164207 -10.21034962 4.21619267 -7.75 1.6875 C-4.7990854 -0.12328851 -3.38489309 -0.38684492 0 0 Z " fill="#FAF5F0" transform="translate(567,559)"/>
<path d="M0 0 C1.32 0 2.64 0 4 0 C4.48590022 7.1670282 4.48590022 7.1670282 2.25 11 C0 13 0 13 -4 13 C-3.22191207 3.81856246 -3.22191207 3.81856246 0 0 Z " fill="#FAF2EC" transform="translate(404,772)"/>
<path d="M0 0 C5.44208234 0.34013015 8.93668198 3.70296528 13 7 C12.39671875 7.29648437 11.7934375 7.59296875 11.171875 7.8984375 C8.70460241 9.14982396 6.35988427 10.5578485 4 12 C4 10.68 4 9.36 4 8 C2.35 7.67 0.7 7.34 -1 7 C-0.67 4.69 -0.34 2.38 0 0 Z " fill="#F27142" transform="translate(590,549)"/>
<path d="M0 0 C1.65 0.33 3.3 0.66 5 1 C5.36923077 7.4 5.36923077 7.4 3.5 10.4375 C3.005 10.953125 2.51 11.46875 2 12 C0.68 11.34 -0.64 10.68 -2 10 C-2.25 3.375 -2.25 3.375 0 0 Z " fill="#F8F1ED" transform="translate(398,787)"/>
<path d="M0 0 C1.11568359 0.34998047 1.11568359 0.34998047 2.25390625 0.70703125 C1.55265625 1.26390625 0.85140625 1.82078125 0.12890625 2.39453125 C-2.78435836 4.68046137 -2.78435836 4.68046137 -5.49609375 7.26953125 C-9.09896831 10.3253725 -13.25128837 11.47845111 -17.74609375 12.70703125 C-18.37109375 10.89453125 -18.37109375 10.89453125 -18.74609375 8.70703125 C-18.08609375 7.71703125 -17.42609375 6.72703125 -16.74609375 5.70703125 C-16.74609375 6.69703125 -16.74609375 7.68703125 -16.74609375 8.70703125 C-11.35506739 7.49405032 -8.5298252 4.90351795 -4.7734375 1.0703125 C-2.74609375 -0.29296875 -2.74609375 -0.29296875 0 0 Z " fill="#F16D44" transform="translate(551.74609375,573.29296875)"/>
<path d="M0 0 C0.33 0.66 0.66 1.32 1 2 C-4.14066823 9.87954884 -4.14066823 9.87954884 -8 11 C-9.32 11 -10.64 11 -12 11 C-12.33 11.99 -12.66 12.98 -13 14 C-17.455 14.495 -17.455 14.495 -22 15 C-20.68 14.67 -19.36 14.34 -18 14 C-18 10.7 -18 7.4 -18 4 C-17.67 4 -17.34 4 -17 4 C-17 6.31 -17 8.62 -17 11 C-9.2345972 8.77539172 -4.72605299 6.64202042 0 0 Z " fill="#EE724A" transform="translate(486,670)"/>
<path d="M0 0 C1.65 1.65 3.3 3.3 5 5 C4.01 5.495 4.01 5.495 3 6 C3.33 10.29 3.66 14.58 4 19 C3.01 19.33 2.02 19.66 1 20 C1.03480469 19.39671875 1.06960938 18.7934375 1.10546875 18.171875 C1.33925567 13.17399783 1.33925567 13.17399783 -0.3125 8.5625 C-2.12201094 6.80434282 -2.12201094 6.80434282 -5 5 C-3.35 5 -1.7 5 0 5 C0 3.35 0 1.7 0 0 Z " fill="#F27B54" transform="translate(455,757)"/>
<path d="M0 0 C2 3 2 3 1.5625 5.5625 C-0.29245367 9.64339808 -2.69459972 13.02951911 -5.34375 16.6328125 C-6.79438144 18.70612064 -7.94353302 20.70746665 -9 23 C-9.103125 22.38125 -9.20625 21.7625 -9.3125 21.125 C-9.87525373 18.63473516 -9.87525373 18.63473516 -13 17 C-12.67 15.35 -12.34 13.7 -12 12 C-11.67 13.32 -11.34 14.64 -11 16 C-8.00714067 15.40142813 -6.37912421 14.5272032 -4.58984375 12.0390625 C-2.30922151 8.03633775 -0.74507419 4.57572734 0 0 Z " fill="#EE7049" transform="translate(441,699)"/>
<path d="M0 0 C0.33 0 0.66 0 1 0 C1.66 9.57 2.32 19.14 3 29 C2.01 29.33 1.02 29.66 0 30 C0 20.1 0 10.2 0 0 Z " fill="#D7DADA" transform="translate(0,851)"/>
<path d="M0 0 C0.66 0 1.32 0 2 0 C2 2.64 2 5.28 2 8 C5.41021743 7.21302675 8.68885166 6.12880057 12 5 C10.84826645 7.46800047 9.95216435 9.04783565 8 11 C6.01643517 11.71408334 4.01684563 12.38617742 2 13 C-0.20914 9.68629 -0.22481553 8.6553979 -0.125 4.8125 C-0.10695313 3.91144531 -0.08890625 3.01039063 -0.0703125 2.08203125 C-0.04710937 1.39496094 -0.02390625 0.70789063 0 0 Z " fill="#EB7446" transform="translate(418,769)"/>
<path d="M0 0 C0.33 0.99 0.66 1.98 1 3 C3.97 3.495 3.97 3.495 7 4 C6.01 4.33 5.02 4.66 4 5 C3.87625 6.11375 3.7525 7.2275 3.625 8.375 C3 12 3 12 1 14 C-2.0390625 14.1953125 -2.0390625 14.1953125 -5.625 14.125 C-6.81351563 14.10695313 -8.00203125 14.08890625 -9.2265625 14.0703125 C-10.14179687 14.04710937 -11.05703125 14.02390625 -12 14 C-12 13.67 -12 13.34 -12 13 C-11.22914063 12.93941406 -10.45828125 12.87882813 -9.6640625 12.81640625 C-8.66117188 12.73261719 -7.65828125 12.64882813 -6.625 12.5625 C-5.62726562 12.48128906 -4.62953125 12.40007813 -3.6015625 12.31640625 C-1.02072387 12.15034374 -1.02072387 12.15034374 1 11 C0.72965366 8.56282742 0.72965366 8.56282742 0 6 C-0.99 5.34 -1.98 4.68 -3 4 C-2.01 4 -1.02 4 0 4 C0 2.68 0 1.36 0 0 Z " fill="#EC7F5B" transform="translate(574,571)"/>
<path d="M0 0 C0.33 0 0.66 0 1 0 C1 2.31 1 4.62 1 7 C2.65 6.67 4.3 6.34 6 6 C5.67 6.66 5.34 7.32 5 8 C5.99 8.33 6.98 8.66 8 9 C8.33 11.97 8.66 14.94 9 18 C8.01 18 7.02 18 6 18 C6.33 15.36 6.66 12.72 7 10 C4.69 10.66 2.38 11.32 0 12 C0 8.04 0 4.08 0 0 Z " fill="#ED805A" transform="translate(435,733)"/>
<path d="M0 0 C0.33 0 0.66 0 1 0 C1 1.65 1 3.3 1 5 C3.91517292 3.92598892 5.77810176 3.22189824 8 1 C8 2.32 8 3.64 8 5 C7 6 6 7 5 8 C4.42676193 10.27161255 4.42676193 10.27161255 4.3125 12.6875 C4.24675781 13.49574219 4.18101562 14.30398438 4.11328125 15.13671875 C4.07589844 15.75160156 4.03851563 16.36648438 4 17 C3.34 17 2.68 17 2 17 C2 14.03 2 11.06 2 8 C1.01 7.67 0.02 7.34 -1 7 C-0.67 4.69 -0.34 2.38 0 0 Z " fill="#EB7D55" transform="translate(420,728)"/>
<path d="M0 0 C1.65 0.33 3.3 0.66 5 1 C4.67 2.98 4.34 4.96 4 7 C3.34 6.01 2.68 5.02 2 4 C0.02 6.31 -1.96 8.62 -4 11 C-4.33 10.34 -4.66 9.68 -5 9 C-4.00390625 6.8359375 -4.00390625 6.8359375 -2.5625 4.375 C-2.08941406 3.55773437 -1.61632812 2.74046875 -1.12890625 1.8984375 C-0.75636719 1.27195312 -0.38382812 0.64546875 0 0 Z " fill="#F8E2D7" transform="translate(412,753)"/>
<path d="M0 0 C2.5625 0.875 2.5625 0.875 4.375 3.4375 C4.766875 4.241875 5.15875 5.04625 5.5625 5.875 C2.19545715 6.1045711 0.14879732 6.21443529 -2.8125 4.5 C-3.34875 3.96375 -3.885 3.4275 -4.4375 2.875 C-4.4375 2.215 -4.4375 1.555 -4.4375 0.875 C-2.4375 -0.125 -2.4375 -0.125 0 0 Z " fill="#EEDBD2" transform="translate(631.4375,585.125)"/>
<path d="M0 0 C0 0.99 0 1.98 0 3 C-1.65 3.33 -3.3 3.66 -5 4 C-5.77403558 8.06368679 -6.0984702 11.86425173 -6 16 C-6.33 16 -6.66 16 -7 16 C-7.28875 14.9275 -7.5775 13.855 -7.875 12.75 C-8.92236103 8.86970932 -8.92236103 8.86970932 -11 5 C-7.37 3.35 -3.74 1.7 0 0 Z " fill="#F06E42" transform="translate(459,712)"/>
<path d="M0 0 C0.33 0.66 0.66 1.32 1 2 C2.98 1.67 4.96 1.34 7 1 C6.01 1.804375 6.01 1.804375 5 2.625 C2.68975201 4.89958592 2.68975201 4.89958592 2.75 8.25 C2.87375 9.61125 2.87375 9.61125 3 11 C2.67 11 2.34 11 2 11 C2 9.35 2 7.7 2 6 C1.01 6 0.02 6 -1 6 C-1.33 5.34 -1.66 4.68 -2 4 C-5.02934491 3.34227572 -5.02934491 3.34227572 -8 3 C-8 2.67 -8 2.34 -8 2 C-6.865625 1.855625 -5.73125 1.71125 -4.5625 1.5625 C-1.19222799 1.38828522 -1.19222799 1.38828522 0 0 Z " fill="#F4774F" transform="translate(504,670)"/>
<path d="M0 0 C2.375 0.25 2.375 0.25 5 1 C6.3125 3.0625 6.3125 3.0625 7 5 C4.29120665 6.35439668 1.99066732 6.06501451 -1 6 C-0.67 4.02 -0.34 2.04 0 0 Z " fill="#F6EEE3" transform="translate(590,549)"/>
<path d="M0 0 C0.8125 1.6875 0.8125 1.6875 1 4 C-1.080748 6.98240547 -2.72772505 8.70688824 -6.33984375 9.5390625 C-8.56666538 9.7853145 -10.76078945 9.946337 -13 10 C-12.67 8.02 -12.34 6.04 -12 4 C-11.67 5.32 -11.34 6.64 -11 8 C-5.33289301 6.68206814 -3.33562767 4.51290803 0 0 Z " fill="#EF744D" transform="translate(462,669)"/>
<path d="M0 0 C0.66 0.99 1.32 1.98 2 3 C-0.26399153 5.69937452 -1.63117696 6.89462199 -5.0625 7.875 C-8 8 -8 8 -11 6 C-10.34 6 -9.68 6 -9 6 C-8.67 4.68 -8.34 3.36 -8 2 C-8 2.99 -8 3.98 -8 5 C-3.17557816 3.73053486 -3.17557816 3.73053486 0 0 Z " fill="#F27852" transform="translate(448,691)"/>
<path d="M0 0 C0.66 0.99 1.32 1.98 2 3 C1.34 3.66 0.68 4.32 0 5 C-0.16687448 7.58354218 -0.16687448 7.58354218 0 10 C0.66 10 1.32 10 2 10 C1.67 10.66 1.34 11.32 1 12 C-1.31 10.35 -3.62 8.7 -6 7 C-4.02 4.69 -2.04 2.38 0 0 Z " fill="#E16E45" transform="translate(420,806)"/>
<path d="M0 0 C0.33 0.99 0.66 1.98 1 3 C-4.11963883 8.72911964 -4.11963883 8.72911964 -8.25 10 C-9.1575 10 -10.065 10 -11 10 C-11.66 9.34 -12.32 8.68 -13 8 C-12.34 8 -11.68 8 -11 8 C-10.67 7.01 -10.34 6.02 -10 5 C-10 5.99 -10 6.98 -10 8 C-4.98886765 6.5682479 -3.05530451 4.01554307 0 0 Z " fill="#EC7A59" transform="translate(474,652)"/>
<path d="M0 0 C1.24546405 2.49092811 0.7767578 3.41080733 0 6 C0.598125 6.28875 1.19625 6.5775 1.8125 6.875 C4 8 4 8 7 10 C6.67 10.99 6.34 11.98 6 13 C6 12.34 6 11.68 6 11 C5.2575 10.773125 4.515 10.54625 3.75 10.3125 C0.48860409 8.75592468 -0.92894975 6.91481146 -3 4 C-2.01 2.68 -1.02 1.36 0 0 Z " fill="#D76C4E" transform="translate(402,795)"/>
<path d="M0 0 C3.63 0 7.26 0 11 0 C11 1.32 11 2.64 11 4 C9.35 3.67 7.7 3.34 6 3 C6 2.34 6 1.68 6 1 C3.69 1.33 1.38 1.66 -1 2 C-0.67 1.34 -0.34 0.68 0 0 Z " fill="#F6DCCA" transform="translate(543,570)"/>
<path d="M0 0 C0.33 0.66 0.66 1.32 1 2 C0.67 2.66 0.34 3.32 0 4 C-0.22622081 5.70363822 -0.40888473 7.41328701 -0.5625 9.125 C-0.64628906 10.03507813 -0.73007812 10.94515625 -0.81640625 11.8828125 C-0.87699219 12.58148437 -0.93757813 13.28015625 -1 14 C-1.33 14 -1.66 14 -2 14 C-2.1953125 11.98177083 -2.390625 9.96354167 -2.5859375 7.9453125 C-2.86374749 5.77331755 -2.86374749 5.77331755 -5 4 C-5 3.34 -5 2.68 -5 2 C-3.35 1.34 -1.7 0.68 0 0 Z " fill="#EB7E55" transform="translate(458,809)"/>
<path d="M0 0 C0.433125 0.639375 0.86625 1.27875 1.3125 1.9375 C2.91239177 4.26746003 2.91239177 4.26746003 6 5 C6 5.66 6 6.32 6 7 C2.0186217 8.3271261 -1.85045227 8.06915913 -6 8 C-6 7.67 -6 7.34 -6 7 C-3.69 7 -1.38 7 1 7 C0.67 4.69 0.34 2.38 0 0 Z " fill="#EF7F57" transform="translate(447,776)"/>
<path d="M0 0 C0.33 0.99 0.66 1.98 1 3 C-1.65381366 7.3522544 -4.10842202 8.7771055 -9 10 C-6.22237877 6.39937989 -3.26008643 3.16952847 0 0 Z " fill="#EF7551" transform="translate(533,586)"/>
<path d="M0 0 C0.33 0.99 0.66 1.98 1 3 C3.64 2.34 6.28 1.68 9 1 C9 1.99 9 2.98 9 4 C4.545 5.485 4.545 5.485 0 7 C-1 3 -1 3 0 0 Z " fill="#EF7A56" transform="translate(534,579)"/>
<path d="M0 0 C1.67542976 0.28604898 3.34385343 0.61781233 5 1 C5 2.65 5 4.3 5 6 C4.34 5.34 3.68 4.68 3 4 C0.73725212 4.35355436 -0.95088852 4.97544426 -3 6 C-1.125 1.125 -1.125 1.125 0 0 Z " fill="#F7E9DF" transform="translate(436,698)"/>
<path d="M0 0 C0.66 0 1.32 0 2 0 C2 1.65 2 3.3 2 5 C3.32 5.33 4.64 5.66 6 6 C4.68 6 3.36 6 2 6 C1.67 7.32 1.34 8.64 1 10 C0.67 9.01 0.34 8.02 0 7 C-2.00016466 5.79117904 -2.00016466 5.79117904 -4 5 C-2.68 5 -1.36 5 0 5 C0 3.35 0 1.7 0 0 Z " fill="#ED744E" transform="translate(517,591)"/>
<path d="M0 0 C0 0.99 0 1.98 0 3 C-2.39763185 5.39763185 -3.33273498 5.34280586 -6.625 5.625 C-7.44226563 5.69976563 -8.25953125 5.77453125 -9.1015625 5.8515625 C-9.72804688 5.90054688 -10.35453125 5.94953125 -11 6 C-8.06849527 2.70880144 -5.23782153 2.09869447 -1 1 C-0.67 0.67 -0.34 0.34 0 0 Z " fill="#EF8360" transform="translate(495,729)"/>
<path d="M0 0 C1.2065625 0.0309375 1.2065625 0.0309375 2.4375 0.0625 C2.5625 3.4375 2.5625 3.4375 2.4375 7.0625 C1.7775 7.7225 1.1175 8.3825 0.4375 9.0625 C0.4375 7.0825 0.4375 5.1025 0.4375 3.0625 C-0.8825 2.4025 -2.2025 1.7425 -3.5625 1.0625 C-2.5625 0.0625 -2.5625 0.0625 0 0 Z " fill="#F9F2E9" transform="translate(460.5625,700.9375)"/>
<path d="M0 0 C0.33 0.66 0.66 1.32 1 2 C2.98 2 4.96 2 7 2 C7 2.66 7 3.32 7 4 C5.35 4 3.7 4 2 4 C1.67 5.32 1.34 6.64 1 8 C0.67 7.01 0.34 6.02 0 5 C-0.99 4.34 -1.98 3.68 -3 3 C-2.01 3 -1.02 3 0 3 C0 2.01 0 1.02 0 0 Z " fill="#F18965" transform="translate(545,643)"/>
<path d="M0 0 C0.33 0.99 0.66 1.98 1 3 C-2.31371 5.20914 -3.3446021 5.22481553 -7.1875 5.125 C-8.08855469 5.10695313 -8.98960937 5.08890625 -9.91796875 5.0703125 C-10.60503906 5.04710937 -11.29210937 5.02390625 -12 5 C-11.67 3.68 -11.34 2.36 -11 1 C-11 1.99 -11 2.98 -11 4 C-6.44262737 3.56179109 -3.42346555 3.14958831 0 0 Z " fill="#EC7D5C" transform="translate(567,564)"/>
<path d="M0 0 C0.33 0 0.66 0 1 0 C1.33 4.62 1.66 9.24 2 14 C1.01 14.33 0.02 14.66 -1 15 C-0.67 10.05 -0.34 5.1 0 0 Z " fill="#CACACD" transform="translate(1,866)"/>
<path d="M0 0 C0.66 0.99 1.32 1.98 2 3 C5.58357241 3.25015873 5.58357241 3.25015873 9 3 C8.67 3.66 8.34 4.32 8 5 C1.00358423 6.37634409 1.00358423 6.37634409 -2.5 5.0625 C-2.995 4.711875 -3.49 4.36125 -4 4 C-2.68 2.68 -1.36 1.36 0 0 Z " fill="#F18460" transform="translate(560,627)"/>
<path d="M0 0 C0.33 0 0.66 0 1 0 C0.64989059 8.35010941 0.64989059 8.35010941 -2.0625 11.0625 C-2.701875 11.371875 -3.34125 11.68125 -4 12 C-4.66 11.67 -5.32 11.34 -6 11 C-5.38125 10.29875 -4.7625 9.5975 -4.125 8.875 C-1.9572991 5.94222819 -0.97344445 3.48817594 0 0 Z " fill="#F17959" transform="translate(475,733)"/>
<path d="M0 0 C-3.33333333 2.66666667 -6.66666667 5.33333333 -10 8 C-7.95662621 2.18424383 -6.49689233 -0.52677505 0 0 Z " fill="#F8E4D8" transform="translate(468,685)"/>
<path d="M0 0 C0.33 0 0.66 0 1 0 C1 1.65 1 3.3 1 5 C2.98 4.67 4.96 4.34 7 4 C6.67 4.66 6.34 5.32 6 6 C4.68 6 3.36 6 2 6 C1.67 7.32 1.34 8.64 1 10 C0.67 9.01 0.34 8.02 0 7 C-0.99 6.34 -1.98 5.68 -3 5 C-2.01 5 -1.02 5 0 5 C0 3.35 0 1.7 0 0 Z " fill="#EC9274" transform="translate(490,620)"/>
<path d="M0 0 C0.8125 1.625 0.8125 1.625 1 4 C-0.46818136 6.24609835 -2.15852858 8.02378677 -4 10 C-4.33 9.34 -4.66 8.68 -5 8 C-5.66 7.67 -6.32 7.34 -7 7 C-6.401875 6.773125 -5.80375 6.54625 -5.1875 6.3125 C-2.43648112 4.66188867 -1.47515363 2.8027919 0 0 Z " fill="#EC6F49" transform="translate(467,786)"/>
<path d="M0 0 C2.475 0.495 2.475 0.495 5 1 C3.515 4.465 3.515 4.465 2 8 C1.67 8 1.34 8 1 8 C0.67 5.36 0.34 2.72 0 0 Z " fill="#EE6F47" transform="translate(509,695)"/>
<path d="M0 0 C0.33 0.99 0.66 1.98 1 3 C-0.9375 5.6875 -0.9375 5.6875 -3 8 C-3.99 7.67 -4.98 7.34 -6 7 C-4.02 4.69 -2.04 2.38 0 0 Z " fill="#F06C45" transform="translate(531,671)"/>
<path d="M0 0 C-0.33 0.66 -0.66 1.32 -1 2 C-1.99 2 -2.98 2 -4 2 C-4.33 3.32 -4.66 4.64 -5 6 C-5.103125 5.38125 -5.20625 4.7625 -5.3125 4.125 C-5.87525373 1.63473516 -5.87525373 1.63473516 -9 0 C-5.52176885 -1.15941038 -3.54104422 -0.70820884 0 0 Z " fill="#F27C52" transform="translate(538,661)"/>
<path d="M0 0 C4.61691161 0.52464905 6.09987886 1.07490914 10 4 C6.7 3.67 3.4 3.34 0 3 C0 2.01 0 1.02 0 0 Z " fill="#F7ECE4" transform="translate(520,640)"/>
<path d="M0 0 C0.66 0 1.32 0 2 0 C0.55746343 3.36591866 -1.33264727 5.51047079 -4 8 C-4.66 7.67 -5.32 7.34 -6 7 C-5.04882866 5.8274869 -4.08882991 4.66212985 -3.125 3.5 C-2.59132813 2.8503125 -2.05765625 2.200625 -1.5078125 1.53125 C-0.76144531 0.77328125 -0.76144531 0.77328125 0 0 Z " fill="#F8E7DD" transform="translate(554,632)"/>
<path d="M0 0 C0.66 1.32 1.32 2.64 2 4 C-0.375 5.5625 -0.375 5.5625 -3 7 C-3.66 6.67 -4.32 6.34 -5 6 C-3.35 4.02 -1.7 2.04 0 0 Z " fill="#F3734C" transform="translate(502,617)"/>
<path d="M0 0 C0.8353125 0.37125 0.8353125 0.37125 1.6875 0.75 C-0.98728244 2.4127026 -3.3120144 3.74983813 -6.3125 4.75 C-7.04573796 6.76508358 -7.04573796 6.76508358 -7.3125 8.75 C-7.625 6.5 -7.625 6.5 -7.3125 3.75 C-3.41056452 -0.36870968 -3.41056452 -0.36870968 0 0 Z " fill="#FBE5D4" transform="translate(601.3125,557.25)"/>
<path d="M0 0 C2.475 0.495 2.475 0.495 5 1 C5 3.31 5 5.62 5 8 C3 5 3 5 3 3 C2.34 2.67 1.68 2.34 1 2 C0.67 1.34 0.34 0.68 0 0 Z " fill="#F8EBE0" transform="translate(398,787)"/>
<path d="M0 0 C2.125 0.375 2.125 0.375 4 1 C3.0409375 1.5878125 3.0409375 1.5878125 2.0625 2.1875 C-0.43778819 4.38472296 -0.64950425 5.75791433 -1 9 C-1.33 9 -1.66 9 -2 9 C-2.125 5.625 -2.125 5.625 -2 2 C-1.34 1.34 -0.68 0.68 0 0 Z " fill="#F6DCD1" transform="translate(456,746)"/>
<path d="M0 0 C0.66 0 1.32 0 2 0 C1 3 1 3 -1 4 C-2.54023996 4.06950541 -4.08334988 4.08452357 -5.625 4.0625 C-6.85089844 4.04896484 -6.85089844 4.04896484 -8.1015625 4.03515625 C-9.04128906 4.01775391 -9.04128906 4.01775391 -10 4 C-10 3.67 -10 3.34 -10 3 C-9.04287109 2.80083984 -9.04287109 2.80083984 -8.06640625 2.59765625 C-7.24011719 2.42105469 -6.41382813 2.24445312 -5.5625 2.0625 C-4.73878906 1.88847656 -3.91507813 1.71445312 -3.06640625 1.53515625 C-1.02338796 1.19247006 -1.02338796 1.19247006 0 0 Z " fill="#EE7447" transform="translate(581,558)"/>
<path d="M0 0 C2.97 0.495 2.97 0.495 6 1 C6 1.99 6 2.98 6 4 C3.03 3.505 3.03 3.505 0 3 C0 2.01 0 1.02 0 0 Z " fill="#EC5C25" transform="translate(583,546)"/>
<path d="M0 0 C2.31 0.66 4.62 1.32 7 2 C7 2.99 7 3.98 7 5 C4.625 4.75 4.625 4.75 2 4 C0.6875 1.9375 0.6875 1.9375 0 0 Z " fill="#DD6E3F" transform="translate(448,830)"/>
<path d="M0 0 C1.98 0 3.96 0 6 0 C1.375 4 1.375 4 -2 4 C-1.34 2.68 -0.68 1.36 0 0 Z " fill="#F7EEE7" transform="translate(440,724)"/>
<path d="M0 0 C1.32 0 2.64 0 4 0 C4 0.66 4 1.32 4 2 C4.66 2 5.32 2 6 2 C6 3.98 6 5.96 6 8 C5.67 8 5.34 8 5 8 C5 6.35 5 4.7 5 3 C3.68 3 2.36 3 1 3 C0.67 2.01 0.34 1.02 0 0 Z " fill="#F5855E" transform="translate(458,698)"/>
</svg>
